# MagicaVoxel @ Ephtracy

# group
o 

# material
mtllib rooster.mtl
usemtl palette

# normals
vn -1 0 0
vn 1 0 0
vn 0 0 1
vn 0 0 -1
vn 0 -1 0
vn 0 1 0

# texcoords
vt 0.474609 0.5
vt 0.478516 0.5
vt 0.482422 0.5
vt 0.810547 0.5
vt 0.982422 0.5

# verts
v -0.4 0 0.3
v -0.4 0 0
v -0.4 0.1 0.3
v -0.4 0.1 0
v -0.4 0.3 0.2
v -0.4 0.3 -0.3
v -0.4 0.5 0.2
v -0.4 0.5 -0.3
v -0.3 0.1 0.1
v -0.3 0.1 0
v -0.3 0.2 0.3
v -0.3 0.2 0.1
v -0.3 0.2 0
v -0.3 0.2 -0.2
v -0.3 0.3 0.2
v -0.3 0.3 -0.2
v -0.3 0.5 0.2
v -0.3 0.5 -0.2
v -0.3 0.7 0.2
v -0.3 0.7 0
v -0.3 0.8 0.1
v -0.3 0.8 0
v -0.3 0.9 0.2
v -0.3 0.9 0.1
v -0.3 0.9 0
v -0.3 1 0.3
v -0.3 1 -0.2
v -0.2 0 0.3
v -0.2 0 0.2
v -0.2 0.1 0.3
v -0.2 0.1 0.2
v -0.2 0.2 -0.2
v -0.2 0.2 -0.3
v -0.2 0.3 -0.2
v -0.2 0.3 -0.3
v -0.2 0.3 -0.4
v -0.2 0.4 -0.2
v -0.2 0.4 -0.3
v -0.2 0.4 -0.4
v -0.2 0.5 -0.2
v -0.2 0.5 -0.3
v -0.1 0.3 -0.4
v -0.1 0.3 -0.5
v -0.1 0.4 0.4
v -0.1 0.4 0.3
v -0.1 0.4 -0.3
v -0.1 0.4 -0.4
v -0.1 0.4 -0.5
v -0.1 0.5 -0.2
v -0.1 0.5 -0.3
v -0.1 0.5 -0.4
v -0.1 0.6 0.5
v -0.1 0.6 0.4
v -0.1 0.6 0.3
v -0.1 0.6 -0.2
v -0.1 0.6 -0.3
v -0.1 0.7 0.5
v -0.1 0.7 0.4
v -0.1 0.8 0.4
v -0.1 0.8 0.3
v -0.1 1 0.3
v -0.1 1 -0.2
v -0.1 1.1 0
v -0.1 1.1 -0.2
v -0.1 1.2 0.3
v -0.1 1.2 0.2
v -0.1 1.2 0.1
v -0.1 1.2 0
v -0.1 1.3 0.2
v -0.1 1.3 0.1
v 0 0 0.3
v 0 0 0
v 0 0.1 0.3
v 0 0.1 0
v 0.1 0.1 0.1
v 0.1 0.1 0
v 0.1 0.2 0.1
v 0.1 0.2 0
v 0.1 0.2 -0.1
v 0.1 0.2 -0.2
v 0.1 0.3 -0.1
v 0.1 0.3 -0.2
v 0.2 0 0.3
v 0.2 0 0.2
v 0.2 0.1 0.3
v 0.2 0.1 0.2
v 0.2 0.4 -0.2
v 0.2 0.4 -0.3
v 0.2 0.5 -0.2
v 0.2 0.5 -0.3
v -0.3 0 0.3
v -0.3 0 0.2
v -0.3 0.1 0.3
v -0.3 0.1 0.2
v -0.3 0.4 -0.2
v -0.3 0.4 -0.3
v -0.3 0.5 -0.2
v -0.3 0.5 -0.3
v -0.2 0.1 0.1
v -0.2 0.1 0
v -0.2 0.2 0.1
v -0.2 0.2 0
v -0.1 0 0.3
v -0.1 0 0
v -0.1 0.1 0.3
v -0.1 0.1 0
v 0 0.2 -0.1
v 0 0.2 -0.2
v 0 0.3 -0.1
v 0 0.3 -0.2
v 0 0.3 -0.4
v 0 0.3 -0.5
v 0 0.4 0.4
v 0 0.4 0.3
v 0 0.4 -0.3
v 0 0.4 -0.4
v 0 0.4 -0.5
v 0 0.5 -0.2
v 0 0.5 -0.3
v 0 0.5 -0.4
v 0 0.6 0.5
v 0 0.6 0.4
v 0 0.6 0.3
v 0 0.6 -0.2
v 0 0.6 -0.3
v 0 0.7 0.5
v 0 0.7 0.4
v 0 0.8 0.4
v 0 0.8 0.3
v 0 1 0.3
v 0 1 -0.2
v 0 1.1 0
v 0 1.1 -0.2
v 0 1.2 0.3
v 0 1.2 0.2
v 0 1.2 0.1
v 0 1.2 0
v 0 1.3 0.2
v 0 1.3 0.1
v 0.1 0 0.3
v 0.1 0 0.2
v 0.1 0.1 0.3
v 0.1 0.1 0.2
v 0.1 0.2 -0.2
v 0.1 0.2 -0.3
v 0.1 0.3 -0.2
v 0.1 0.3 -0.3
v 0.1 0.3 -0.4
v 0.1 0.4 -0.2
v 0.1 0.4 -0.3
v 0.1 0.4 -0.4
v 0.1 0.5 -0.2
v 0.1 0.5 -0.3
v 0.2 0.1 0.1
v 0.2 0.1 0
v 0.2 0.2 0.3
v 0.2 0.2 0.1
v 0.2 0.2 0
v 0.2 0.2 -0.2
v 0.2 0.3 0.2
v 0.2 0.3 -0.2
v 0.2 0.5 0.2
v 0.2 0.5 -0.2
v 0.2 0.7 0.2
v 0.2 0.7 0
v 0.2 0.8 0.1
v 0.2 0.8 0
v 0.2 0.9 0.2
v 0.2 0.9 0.1
v 0.2 0.9 0
v 0.2 1 0.3
v 0.2 1 -0.2
v 0.3 0 0.3
v 0.3 0 0
v 0.3 0.1 0.3
v 0.3 0.1 0
v 0.3 0.3 0.2
v 0.3 0.3 -0.3
v 0.3 0.5 0.2
v 0.3 0.5 -0.3
v -0.1 0.6 0.5
v -0.1 0.7 0.5
v 0 0.6 0.5
v 0 0.7 0.5
v -0.1 0.4 0.4
v -0.1 0.6 0.4
v -0.1 0.7 0.4
v -0.1 0.8 0.4
v 0 0.4 0.4
v 0 0.6 0.4
v 0 0.7 0.4
v 0 0.8 0.4
v -0.4 0 0.3
v -0.4 0.1 0.3
v -0.3 0 0.3
v -0.3 0.1 0.3
v -0.3 0.2 0.3
v -0.3 1 0.3
v -0.2 0 0.3
v -0.2 0.1 0.3
v -0.1 0 0.3
v -0.1 0.1 0.3
v -0.1 0.4 0.3
v -0.1 0.6 0.3
v -0.1 0.8 0.3
v -0.1 1 0.3
v -0.1 1.2 0.3
v 0 0 0.3
v 0 0.1 0.3
v 0 0.4 0.3
v 0 0.6 0.3
v 0 0.8 0.3
v 0 1 0.3
v 0 1.2 0.3
v 0.1 0 0.3
v 0.1 0.1 0.3
v 0.2 0 0.3
v 0.2 0.1 0.3
v 0.2 0.2 0.3
v 0.2 1 0.3
v 0.3 0 0.3
v 0.3 0.1 0.3
v -0.4 0.3 0.2
v -0.4 0.5 0.2
v -0.3 0 0.2
v -0.3 0.1 0.2
v -0.3 0.3 0.2
v -0.3 0.5 0.2
v -0.2 0 0.2
v -0.2 0.1 0.2
v -0.1 1.2 0.2
v -0.1 1.3 0.2
v 0 1.2 0.2
v 0 1.3 0.2
v 0.1 0 0.2
v 0.1 0.1 0.2
v 0.2 0 0.2
v 0.2 0.1 0.2
v 0.2 0.3 0.2
v 0.2 0.5 0.2
v 0.3 0.3 0.2
v 0.3 0.5 0.2
v -0.3 0.1 0.1
v -0.3 0.2 0.1
v -0.2 0.1 0.1
v -0.2 0.2 0.1
v 0.1 0.1 0.1
v 0.1 0.2 0.1
v 0.2 0.1 0.1
v 0.2 0.2 0.1
v 0 0.2 -0.2
v 0 0.3 -0.2
v 0.1 0.2 -0.2
v 0.1 0.3 -0.2
v -0.1 1.2 0.1
v -0.1 1.3 0.1
v 0 1.2 0.1
v 0 1.3 0.1
v -0.4 0 0
v -0.4 0.1 0
v -0.3 0.1 0
v -0.3 0.2 0
v -0.2 0.1 0
v -0.2 0.2 0
v -0.1 0 0
v -0.1 0.1 0
v -0.1 1.1 0
v -0.1 1.2 0
v 0 0 0
v 0 0.1 0
v 0 1.1 0
v 0 1.2 0
v 0.1 0.1 0
v 0.1 0.2 0
v 0.2 0.1 0
v 0.2 0.2 0
v 0.3 0 0
v 0.3 0.1 0
v 0 0.2 -0.1
v 0 0.3 -0.1
v 0.1 0.2 -0.1
v 0.1 0.3 -0.1
v -0.3 0.2 -0.2
v -0.3 0.3 -0.2
v -0.3 0.4 -0.2
v -0.3 0.5 -0.2
v -0.3 1 -0.2
v -0.2 0.2 -0.2
v -0.2 0.3 -0.2
v -0.2 0.4 -0.2
v -0.2 0.5 -0.2
v -0.1 0.5 -0.2
v -0.1 0.6 -0.2
v -0.1 1 -0.2
v -0.1 1.1 -0.2
v 0 0.5 -0.2
v 0 0.6 -0.2
v 0 1 -0.2
v 0 1.1 -0.2
v 0.1 0.2 -0.2
v 0.1 0.3 -0.2
v 0.1 0.4 -0.2
v 0.1 0.5 -0.2
v 0.2 0.2 -0.2
v 0.2 0.3 -0.2
v 0.2 0.4 -0.2
v 0.2 0.5 -0.2
v 0.2 1 -0.2
v -0.4 0.3 -0.3
v -0.4 0.5 -0.3
v -0.3 0.4 -0.3
v -0.3 0.5 -0.3
v -0.2 0.2 -0.3
v -0.2 0.3 -0.3
v -0.2 0.4 -0.3
v -0.2 0.5 -0.3
v -0.1 0.4 -0.3
v -0.1 0.5 -0.3
v -0.1 0.6 -0.3
v 0 0.4 -0.3
v 0 0.5 -0.3
v 0 0.6 -0.3
v 0.1 0.2 -0.3
v 0.1 0.3 -0.3
v 0.1 0.4 -0.3
v 0.1 0.5 -0.3
v 0.2 0.4 -0.3
v 0.2 0.5 -0.3
v 0.3 0.3 -0.3
v 0.3 0.5 -0.3
v -0.2 0.3 -0.4
v -0.2 0.4 -0.4
v -0.1 0.3 -0.4
v -0.1 0.4 -0.4
v -0.1 0.5 -0.4
v 0 0.3 -0.4
v 0 0.4 -0.4
v 0 0.5 -0.4
v 0.1 0.3 -0.4
v 0.1 0.4 -0.4
v -0.1 0.3 -0.5
v -0.1 0.4 -0.5
v 0 0.3 -0.5
v 0 0.4 -0.5
v -0.4 0 0.3
v -0.3 0 0.3
v -0.2 0 0.3
v -0.1 0 0.3
v 0 0 0.3
v 0.1 0 0.3
v 0.2 0 0.3
v 0.3 0 0.3
v -0.3 0 0.2
v -0.2 0 0.2
v 0.1 0 0.2
v 0.2 0 0.2
v -0.4 0 0
v -0.1 0 0
v 0 0 0
v 0.3 0 0
v -0.3 0.2 0.3
v 0.2 0.2 0.3
v -0.3 0.2 0.1
v -0.2 0.2 0.1
v 0.1 0.2 0.1
v 0.2 0.2 0.1
v -0.3 0.2 0
v -0.2 0.2 0
v 0.1 0.2 0
v 0.2 0.2 0
v 0 0.2 -0.1
v 0.1 0.2 -0.1
v -0.3 0.2 -0.2
v -0.2 0.2 -0.2
v 0 0.2 -0.2
v 0.1 0.2 -0.2
v 0.2 0.2 -0.2
v -0.2 0.2 -0.3
v 0.1 0.2 -0.3
v -0.4 0.3 0.2
v -0.3 0.3 0.2
v 0.2 0.3 0.2
v 0.3 0.3 0.2
v 0 0.3 -0.1
v 0.1 0.3 -0.1
v -0.3 0.3 -0.2
v -0.2 0.3 -0.2
v 0 0.3 -0.2
v 0.1 0.3 -0.2
v 0.2 0.3 -0.2
v -0.4 0.3 -0.3
v -0.2 0.3 -0.3
v 0.1 0.3 -0.3
v 0.3 0.3 -0.3
v -0.2 0.3 -0.4
v -0.1 0.3 -0.4
v 0 0.3 -0.4
v 0.1 0.3 -0.4
v -0.1 0.3 -0.5
v 0 0.3 -0.5
v -0.1 0.4 0.4
v 0 0.4 0.4
v -0.1 0.4 0.3
v 0 0.4 0.3
v -0.1 0.6 0.5
v 0 0.6 0.5
v -0.1 0.6 0.4
v 0 0.6 0.4
v -0.4 0.1 0.3
v -0.3 0.1 0.3
v -0.2 0.1 0.3
v -0.1 0.1 0.3
v 0 0.1 0.3
v 0.1 0.1 0.3
v 0.2 0.1 0.3
v 0.3 0.1 0.3
v -0.3 0.1 0.2
v -0.2 0.1 0.2
v 0.1 0.1 0.2
v 0.2 0.1 0.2
v -0.3 0.1 0.1
v -0.2 0.1 0.1
v 0.1 0.1 0.1
v 0.2 0.1 0.1
v -0.4 0.1 0
v -0.3 0.1 0
v -0.2 0.1 0
v -0.1 0.1 0
v 0 0.1 0
v 0.1 0.1 0
v 0.2 0.1 0
v 0.3 0.1 0
v -0.3 0.4 -0.2
v -0.2 0.4 -0.2
v 0.1 0.4 -0.2
v 0.2 0.4 -0.2
v -0.3 0.4 -0.3
v -0.2 0.4 -0.3
v -0.1 0.4 -0.3
v 0 0.4 -0.3
v 0.1 0.4 -0.3
v 0.2 0.4 -0.3
v -0.2 0.4 -0.4
v -0.1 0.4 -0.4
v 0 0.4 -0.4
v 0.1 0.4 -0.4
v -0.1 0.4 -0.5
v 0 0.4 -0.5
v -0.4 0.5 0.2
v -0.3 0.5 0.2
v 0.2 0.5 0.2
v 0.3 0.5 0.2
v -0.3 0.5 -0.2
v -0.2 0.5 -0.2
v -0.1 0.5 -0.2
v 0 0.5 -0.2
v 0.1 0.5 -0.2
v 0.2 0.5 -0.2
v -0.4 0.5 -0.3
v -0.3 0.5 -0.3
v -0.2 0.5 -0.3
v -0.1 0.5 -0.3
v 0 0.5 -0.3
v 0.1 0.5 -0.3
v 0.2 0.5 -0.3
v 0.3 0.5 -0.3
v -0.1 0.5 -0.4
v 0 0.5 -0.4
v -0.1 0.6 -0.2
v 0 0.6 -0.2
v -0.1 0.6 -0.3
v 0 0.6 -0.3
v -0.1 0.7 0.5
v 0 0.7 0.5
v -0.1 0.7 0.4
v 0 0.7 0.4
v -0.1 0.8 0.4
v 0 0.8 0.4
v -0.1 0.8 0.3
v 0 0.8 0.3
v -0.3 1 0.3
v -0.1 1 0.3
v 0 1 0.3
v 0.2 1 0.3
v -0.3 1 -0.2
v -0.1 1 -0.2
v 0 1 -0.2
v 0.2 1 -0.2
v -0.1 1.1 0
v 0 1.1 0
v -0.1 1.1 -0.2
v 0 1.1 -0.2
v -0.1 1.2 0.3
v 0 1.2 0.3
v -0.1 1.2 0.2
v 0 1.2 0.2
v -0.1 1.2 0.1
v 0 1.2 0.1
v -0.1 1.2 0
v 0 1.2 0
v -0.1 1.3 0.2
v 0 1.3 0.2
v -0.1 1.3 0.1
v 0 1.3 0.1

# faces
f 3/1/1 2/1/1 1/1/1
f 4/1/1 2/1/1 3/1/1
f 7/5/1 6/5/1 5/5/1
f 8/5/1 6/5/1 7/5/1
f 12/1/1 10/1/1 9/1/1
f 13/1/1 10/1/1 12/1/1
f 15/5/1 12/5/1 11/5/1
f 15/5/1 14/5/1 13/5/1
f 15/5/1 13/5/1 12/5/1
f 16/5/1 14/5/1 15/5/1
f 17/5/1 15/5/1 11/5/1
f 19/5/1 17/5/1 11/5/1
f 19/5/1 18/5/1 17/5/1
f 20/5/1 18/5/1 19/5/1
f 21/2/1 20/2/1 19/2/1
f 22/5/1 18/5/1 20/5/1
f 22/2/1 20/2/1 21/2/1
f 23/5/1 19/5/1 11/5/1
f 23/2/1 21/2/1 19/2/1
f 24/3/1 22/3/1 21/3/1
f 24/2/1 21/2/1 23/2/1
f 25/5/1 18/5/1 22/5/1
f 25/3/1 22/3/1 24/3/1
f 26/5/1 24/5/1 23/5/1
f 26/5/1 23/5/1 11/5/1
f 26/5/1 25/5/1 24/5/1
f 27/5/1 18/5/1 25/5/1
f 27/5/1 25/5/1 26/5/1
f 30/1/1 29/1/1 28/1/1
f 31/1/1 29/1/1 30/1/1
f 34/5/1 33/5/1 32/5/1
f 35/5/1 33/5/1 34/5/1
f 38/5/1 36/5/1 35/5/1
f 39/5/1 36/5/1 38/5/1
f 40/5/1 38/5/1 37/5/1
f 41/5/1 38/5/1 40/5/1
f 47/5/1 43/5/1 42/5/1
f 48/5/1 43/5/1 47/5/1
f 50/5/1 47/5/1 46/5/1
f 51/5/1 47/5/1 50/5/1
f 53/4/1 45/4/1 44/4/1
f 54/4/1 45/4/1 53/4/1
f 55/5/1 50/5/1 49/5/1
f 56/5/1 50/5/1 55/5/1
f 57/1/1 54/1/1 53/1/1
f 57/1/1 53/1/1 52/1/1
f 58/1/1 54/1/1 57/1/1
f 59/1/1 54/1/1 58/1/1
f 60/1/1 54/1/1 59/1/1
f 63/4/1 62/4/1 61/4/1
f 64/4/1 62/4/1 63/4/1
f 65/4/1 63/4/1 61/4/1
f 66/4/1 63/4/1 65/4/1
f 67/4/1 63/4/1 66/4/1
f 68/4/1 63/4/1 67/4/1
f 69/4/1 67/4/1 66/4/1
f 70/4/1 67/4/1 69/4/1
f 73/1/1 72/1/1 71/1/1
f 74/1/1 72/1/1 73/1/1
f 77/1/1 76/1/1 75/1/1
f 78/1/1 76/1/1 77/1/1
f 81/5/1 80/5/1 79/5/1
f 82/5/1 80/5/1 81/5/1
f 85/1/1 84/1/1 83/1/1
f 86/1/1 84/1/1 85/1/1
f 89/5/1 88/5/1 87/5/1
f 90/5/1 88/5/1 89/5/1
f 91/1/2 92/1/2 93/1/2
f 93/1/2 92/1/2 94/1/2
f 95/5/2 96/5/2 97/5/2
f 97/5/2 96/5/2 98/5/2
f 99/1/2 100/1/2 101/1/2
f 101/1/2 100/1/2 102/1/2
f 103/1/2 104/1/2 105/1/2
f 105/1/2 104/1/2 106/1/2
f 107/5/2 108/5/2 109/5/2
f 109/5/2 108/5/2 110/5/2
f 111/5/2 112/5/2 116/5/2
f 116/5/2 112/5/2 117/5/2
f 115/5/2 116/5/2 119/5/2
f 119/5/2 116/5/2 120/5/2
f 113/4/2 114/4/2 122/4/2
f 122/4/2 114/4/2 123/4/2
f 118/5/2 119/5/2 124/5/2
f 124/5/2 119/5/2 125/5/2
f 122/1/2 123/1/2 126/1/2
f 121/1/2 122/1/2 126/1/2
f 126/1/2 123/1/2 127/1/2
f 127/1/2 123/1/2 128/1/2
f 128/1/2 123/1/2 129/1/2
f 130/4/2 131/4/2 132/4/2
f 132/4/2 131/4/2 133/4/2
f 130/4/2 132/4/2 134/4/2
f 134/4/2 132/4/2 135/4/2
f 135/4/2 132/4/2 136/4/2
f 136/4/2 132/4/2 137/4/2
f 135/4/2 136/4/2 138/4/2
f 138/4/2 136/4/2 139/4/2
f 140/1/2 141/1/2 142/1/2
f 142/1/2 141/1/2 143/1/2
f 144/5/2 145/5/2 146/5/2
f 146/5/2 145/5/2 147/5/2
f 147/5/2 148/5/2 150/5/2
f 150/5/2 148/5/2 151/5/2
f 149/5/2 150/5/2 152/5/2
f 152/5/2 150/5/2 153/5/2
f 154/1/2 155/1/2 157/1/2
f 157/1/2 155/1/2 158/1/2
f 156/5/2 157/5/2 160/5/2
f 158/5/2 159/5/2 160/5/2
f 157/5/2 158/5/2 160/5/2
f 160/5/2 159/5/2 161/5/2
f 156/5/2 160/5/2 162/5/2
f 156/5/2 162/5/2 164/5/2
f 162/5/2 163/5/2 164/5/2
f 164/5/2 163/5/2 165/5/2
f 164/2/2 165/2/2 166/2/2
f 165/5/2 163/5/2 167/5/2
f 166/2/2 165/2/2 167/2/2
f 156/5/2 164/5/2 168/5/2
f 164/2/2 166/2/2 168/2/2
f 166/3/2 167/3/2 169/3/2
f 168/2/2 166/2/2 169/2/2
f 167/5/2 163/5/2 170/5/2
f 169/3/2 167/3/2 170/3/2
f 168/5/2 169/5/2 171/5/2
f 156/5/2 168/5/2 171/5/2
f 169/5/2 170/5/2 171/5/2
f 170/5/2 163/5/2 172/5/2
f 171/5/2 170/5/2 172/5/2
f 173/1/2 174/1/2 175/1/2
f 175/1/2 174/1/2 176/1/2
f 177/5/2 178/5/2 179/5/2
f 179/5/2 178/5/2 180/5/2
f 183/1/3 182/1/3 181/1/3
f 184/1/3 182/1/3 183/1/3
f 189/4/3 186/4/3 185/4/3
f 190/4/3 186/4/3 189/4/3
f 191/1/3 188/1/3 187/1/3
f 192/1/3 188/1/3 191/1/3
f 195/1/3 194/1/3 193/1/3
f 196/1/3 194/1/3 195/1/3
f 201/1/3 200/1/3 199/1/3
f 202/1/3 200/1/3 201/1/3
f 203/5/3 198/5/3 197/5/3
f 204/5/3 198/5/3 203/5/3
f 205/5/3 198/5/3 204/5/3
f 206/5/3 198/5/3 205/5/3
f 210/5/3 203/5/3 197/5/3
f 212/5/3 206/5/3 205/5/3
f 213/4/3 207/4/3 206/4/3
f 213/5/3 206/5/3 212/5/3
f 214/4/3 207/4/3 213/4/3
f 215/1/3 209/1/3 208/1/3
f 216/1/3 209/1/3 215/1/3
f 219/5/3 212/5/3 211/5/3
f 219/5/3 211/5/3 210/5/3
f 219/5/3 210/5/3 197/5/3
f 219/5/3 213/5/3 212/5/3
f 220/5/3 213/5/3 219/5/3
f 221/1/3 218/1/3 217/1/3
f 222/1/3 218/1/3 221/1/3
f 227/5/3 224/5/3 223/5/3
f 228/5/3 224/5/3 227/5/3
f 229/1/3 226/1/3 225/1/3
f 230/1/3 226/1/3 229/1/3
f 233/4/3 232/4/3 231/4/3
f 234/4/3 232/4/3 233/4/3
f 237/1/3 236/1/3 235/1/3
f 238/1/3 236/1/3 237/1/3
f 241/5/3 240/5/3 239/5/3
f 242/5/3 240/5/3 241/5/3
f 245/1/3 244/1/3 243/1/3
f 246/1/3 244/1/3 245/1/3
f 249/1/3 248/1/3 247/1/3
f 250/1/3 248/1/3 249/1/3
f 253/5/3 252/5/3 251/5/3
f 254/5/3 252/5/3 253/5/3
f 255/4/4 256/4/4 257/4/4
f 257/4/4 256/4/4 258/4/4
f 259/1/4 260/1/4 261/1/4
f 259/1/4 261/1/4 263/1/4
f 261/1/4 262/1/4 263/1/4
f 263/1/4 262/1/4 264/1/4
f 259/1/4 263/1/4 265/1/4
f 265/1/4 263/1/4 266/1/4
f 267/4/4 268/4/4 271/4/4
f 271/4/4 268/4/4 272/4/4
f 269/1/4 270/1/4 273/1/4
f 269/1/4 273/1/4 275/1/4
f 273/1/4 274/1/4 275/1/4
f 275/1/4 274/1/4 276/1/4
f 269/1/4 275/1/4 277/1/4
f 277/1/4 275/1/4 278/1/4
f 279/5/4 280/5/4 281/5/4
f 281/5/4 280/5/4 282/5/4
f 283/5/4 284/5/4 288/5/4
f 288/5/4 284/5/4 289/5/4
f 286/5/4 287/5/4 290/5/4
f 285/5/4 286/5/4 290/5/4
f 290/5/4 287/5/4 291/5/4
f 291/5/4 287/5/4 292/5/4
f 292/5/4 287/5/4 293/5/4
f 293/5/4 287/5/4 294/5/4
f 293/5/4 294/5/4 297/5/4
f 294/4/4 295/4/4 298/4/4
f 297/5/4 294/5/4 298/5/4
f 298/4/4 295/4/4 299/4/4
f 296/5/4 297/5/4 303/5/4
f 297/5/4 298/5/4 303/5/4
f 300/5/4 301/5/4 304/5/4
f 304/5/4 301/5/4 305/5/4
f 302/5/4 303/5/4 306/5/4
f 303/5/4 298/5/4 307/5/4
f 306/5/4 303/5/4 307/5/4
f 307/5/4 298/5/4 308/5/4
f 309/5/4 310/5/4 311/5/4
f 311/5/4 310/5/4 312/5/4
f 309/5/4 311/5/4 314/5/4
f 314/5/4 311/5/4 315/5/4
f 315/5/4 316/5/4 317/5/4
f 317/5/4 316/5/4 318/5/4
f 318/5/4 319/5/4 321/5/4
f 321/5/4 319/5/4 322/5/4
f 313/5/4 314/5/4 323/5/4
f 323/5/4 314/5/4 324/5/4
f 320/5/4 321/5/4 325/5/4
f 325/5/4 321/5/4 326/5/4
f 324/5/4 325/5/4 327/5/4
f 324/5/4 327/5/4 329/5/4
f 327/5/4 328/5/4 329/5/4
f 329/5/4 328/5/4 330/5/4
f 331/5/4 332/5/4 333/5/4
f 333/5/4 332/5/4 334/5/4
f 334/5/4 335/5/4 337/5/4
f 337/5/4 335/5/4 338/5/4
f 336/5/4 337/5/4 339/5/4
f 339/5/4 337/5/4 340/5/4
f 341/5/4 342/5/4 343/5/4
f 343/5/4 342/5/4 344/5/4
f 353/1/5 346/1/5 345/1/5
f 354/1/5 348/1/5 347/1/5
f 355/1/5 350/1/5 349/1/5
f 356/1/5 352/1/5 351/1/5
f 357/1/5 353/1/5 345/1/5
f 357/1/5 354/1/5 353/1/5
f 358/1/5 348/1/5 354/1/5
f 358/1/5 354/1/5 357/1/5
f 359/1/5 355/1/5 349/1/5
f 359/1/5 356/1/5 355/1/5
f 360/1/5 352/1/5 356/1/5
f 360/1/5 356/1/5 359/1/5
f 363/5/5 362/5/5 361/5/5
f 364/5/5 362/5/5 363/5/5
f 365/5/5 362/5/5 364/5/5
f 366/5/5 362/5/5 365/5/5
f 368/5/5 365/5/5 364/5/5
f 369/5/5 365/5/5 368/5/5
f 371/5/5 368/5/5 367/5/5
f 371/5/5 370/5/5 369/5/5
f 371/5/5 369/5/5 368/5/5
f 372/5/5 370/5/5 371/5/5
f 373/5/5 371/5/5 367/5/5
f 374/5/5 371/5/5 373/5/5
f 375/5/5 371/5/5 374/5/5
f 376/5/5 370/5/5 372/5/5
f 377/5/5 370/5/5 376/5/5
f 378/5/5 375/5/5 374/5/5
f 378/5/5 376/5/5 375/5/5
f 379/5/5 376/5/5 378/5/5
f 386/5/5 381/5/5 380/5/5
f 388/5/5 385/5/5 384/5/5
f 389/5/5 385/5/5 388/5/5
f 390/5/5 383/5/5 382/5/5
f 391/5/5 387/5/5 386/5/5
f 391/5/5 386/5/5 380/5/5
f 392/5/5 387/5/5 391/5/5
f 393/5/5 390/5/5 389/5/5
f 394/5/5 383/5/5 390/5/5
f 394/5/5 390/5/5 393/5/5
f 395/5/5 393/5/5 392/5/5
f 396/5/5 393/5/5 395/5/5
f 397/5/5 393/5/5 396/5/5
f 398/5/5 393/5/5 397/5/5
f 399/5/5 397/5/5 396/5/5
f 400/5/5 397/5/5 399/5/5
f 403/4/5 402/4/5 401/4/5
f 404/4/5 402/4/5 403/4/5
f 407/1/5 406/1/5 405/1/5
f 408/1/5 406/1/5 407/1/5
f 409/1/6 410/1/6 417/1/6
f 411/1/6 412/1/6 418/1/6
f 413/1/6 414/1/6 419/1/6
f 415/1/6 416/1/6 420/1/6
f 409/1/6 417/1/6 421/1/6
f 417/1/6 418/1/6 421/1/6
f 418/1/6 412/1/6 422/1/6
f 421/1/6 418/1/6 422/1/6
f 413/1/6 419/1/6 423/1/6
f 419/1/6 420/1/6 423/1/6
f 420/1/6 416/1/6 424/1/6
f 423/1/6 420/1/6 424/1/6
f 409/1/6 421/1/6 425/1/6
f 425/1/6 421/1/6 426/1/6
f 422/1/6 412/1/6 427/1/6
f 427/1/6 412/1/6 428/1/6
f 413/1/6 423/1/6 429/1/6
f 429/1/6 423/1/6 430/1/6
f 424/1/6 416/1/6 431/1/6
f 431/1/6 416/1/6 432/1/6
f 433/5/6 434/5/6 437/5/6
f 437/5/6 434/5/6 438/5/6
f 435/5/6 436/5/6 441/5/6
f 441/5/6 436/5/6 442/5/6
f 438/5/6 439/5/6 443/5/6
f 443/5/6 439/5/6 444/5/6
f 440/5/6 441/5/6 445/5/6
f 445/5/6 441/5/6 446/5/6
f 444/5/6 445/5/6 447/5/6
f 447/5/6 445/5/6 448/5/6
f 449/5/6 450/5/6 453/5/6
f 451/5/6 452/5/6 458/5/6
f 449/5/6 453/5/6 459/5/6
f 459/5/6 453/5/6 460/5/6
f 454/5/6 455/5/6 461/5/6
f 461/5/6 455/5/6 462/5/6
f 456/5/6 457/5/6 463/5/6
f 463/5/6 457/5/6 464/5/6
f 458/5/6 452/5/6 465/5/6
f 465/5/6 452/5/6 466/5/6
f 462/5/6 463/5/6 467/5/6
f 467/5/6 463/5/6 468/5/6
f 469/5/6 470/5/6 471/5/6
f 471/5/6 470/5/6 472/5/6
f 473/1/6 474/1/6 475/1/6
f 475/1/6 474/1/6 476/1/6
f 477/1/6 478/1/6 479/1/6
f 479/1/6 478/1/6 480/1/6
f 481/5/6 482/5/6 485/5/6
f 485/5/6 482/5/6 486/5/6
f 483/5/6 484/5/6 487/5/6
f 487/5/6 484/5/6 488/5/6
f 489/4/6 490/4/6 491/4/6
f 491/4/6 490/4/6 492/4/6
f 493/4/6 494/4/6 495/4/6
f 495/4/6 494/4/6 496/4/6
f 497/4/6 498/4/6 499/4/6
f 499/4/6 498/4/6 500/4/6
f 501/4/6 502/4/6 503/4/6
f 503/4/6 502/4/6 504/4/6
