# MagicaVoxel @ Ephtracy

# group
o 

# material
mtllib character_player_male_hair_scarf_glasses.mtl
usemtl palette

# normals
vn -1 0 0
vn 1 0 0
vn 0 0 1
vn 0 0 -1
vn 0 -1 0
vn 0 1 0

# texcoords
vt 0.353516 0.5
vt 0.361328 0.5
vt 0.662109 0.5
vt 0.666016 0.5
vt 0.669922 0.5
vt 0.673828 0.5
vt 0.939453 0.5
vt 0.943359 0.5
vt 0.970703 0.5
vt 0.974609 0.5
vt 0.978516 0.5
vt 0.982422 0.5
vt 0.986328 0.5
vt 0.990234 0.5
vt 0.994141 0.5

# verts
v -1 1 0
v -1 1 -0.2
v -1 1.2 0
v -1 1.2 -0.2
v -0.8 1.6 0.2
v -0.8 1.6 -0.2
v -0.8 1.8 0.2
v -0.8 1.8 0
v -0.8 2 0
v -0.8 2 -0.2
v -0.6 1.2 0.3
v -0.6 1.2 0.2
v -0.6 1.2 0
v -0.6 1.2 -0.2
v -0.6 1.2 -0.5
v -0.6 1.4 0.3
v -0.6 1.4 0.2
v -0.6 1.4 0
v -0.6 1.4 -0.2
v -0.6 1.4 -0.4
v -0.6 1.4 -0.5
v -0.6 1.6 0.2
v -0.6 1.6 0
v -0.6 1.6 -0.2
v -0.6 1.6 -0.4
v -0.6 1.6 -0.5
v -0.6 1.7 0.3
v -0.6 1.7 0.2
v -0.6 1.8 0.4
v -0.6 1.8 0.3
v -0.6 1.8 0.2
v -0.6 1.8 0
v -0.6 1.8 -0.4
v -0.6 1.8 -0.5
v -0.6 2 0.4
v -0.6 2 0
v -0.6 2 -0.2
v -0.6 2 -0.4
v -0.5 1.5 0.3
v -0.5 1.5 0.2
v -0.5 1.7 0.3
v -0.5 1.7 0.2
v -0.4 0 0.1
v -0.4 0 -0.2
v -0.4 0.2 0.1
v -0.4 0.2 0
v -0.4 0.2 -0.2
v -0.4 0.4 0.2
v -0.4 0.4 0
v -0.4 0.4 -0.2
v -0.4 0.4 -0.4
v -0.4 0.6 0.3
v -0.4 0.6 0.2
v -0.4 0.6 0
v -0.4 0.6 -0.4
v -0.4 0.8 0.3
v -0.4 0.8 0.2
v -0.4 0.8 0
v -0.4 0.8 -0.2
v -0.4 0.8 -0.4
v -0.4 1 0.3
v -0.4 1 0.2
v -0.4 1 0
v -0.4 1 -0.2
v -0.4 1 -0.4
v -0.4 1.2 0.3
v -0.4 1.2 0.2
v -0.4 1.2 0
v -0.4 1.2 -0.2
v -0.4 1.2 -0.4
v -0.4 1.4 -0.4
v -0.4 1.4 -0.5
v -0.4 1.6 -0.4
v -0.4 1.6 -0.5
v -0.4 2 0.4
v -0.4 2 -0.2
v -0.4 2.2 0.4
v -0.4 2.2 -0.2
v -0.2 1.6 0.3
v -0.2 1.6 0.2
v -0.2 1.7 0.2
v -0.2 1.8 0.3
v -0.2 1.8 0.2
v 0.1 1.5 0.3
v 0.1 1.5 0.2
v 0.1 1.7 0.3
v 0.1 1.7 0.2
v 0.1 1.8 0.3
v 0.1 1.8 0.2
v 0.1 1.9 0.3
v 0.1 1.9 0.2
v 0.2 0 0.1
v 0.2 0 -0.2
v 0.2 0.2 0.1
v 0.2 0.2 0
v 0.2 0.2 -0.2
v 0.2 0.4 0
v 0.2 0.4 -0.2
v 0.4 1.6 0.3
v 0.4 1.6 0.2
v 0.4 1.7 0.2
v 0.4 1.8 0.4
v 0.4 1.8 0.3
v 0.4 1.8 0.2
v 0.4 1.9 0.3
v 0.4 1.9 0.2
v 0.4 2 0.4
v 0.4 2 0.2
v -0.4 1.6 0.3
v -0.4 1.6 0.2
v -0.4 1.8 0.3
v -0.4 1.8 0.2
v -0.2 0 0.1
v -0.2 0 -0.2
v -0.2 0.2 0.1
v -0.2 0.2 0
v -0.2 0.2 -0.2
v -0.2 0.4 0
v -0.2 0.4 -0.2
v -0.2 0.6 0.3
v -0.2 0.6 0.2
v -0.2 0.8 0.3
v -0.2 0.8 0.2
v -0.2 1 0.3
v -0.2 1 0.2
v -0.2 1.8 0.4
v -0.2 1.8 0.3
v -0.2 1.9 0.3
v -0.2 1.9 0.2
v -0.2 2 0.4
v -0.2 2 0.2
v -0.1 1.5 0.3
v -0.1 1.5 0.2
v -0.1 1.7 0.3
v -0.1 1.7 0.2
v -0.1 1.8 0.3
v -0.1 1.8 0.2
v -0.1 1.9 0.3
v -0.1 1.9 0.2
v 0 1 0.3
v 0 1 0.2
v 0 1.2 0.3
v 0 1.2 0.2
v 0 2 0.4
v 0 2 0.2
v 0 2 0
v 0 2.2 0.4
v 0 2.2 0
v 0.2 1.6 0.3
v 0.2 1.6 0.2
v 0.2 1.8 0.3
v 0.2 1.8 0.2
v 0.4 0 0.1
v 0.4 0 -0.2
v 0.4 0.2 0.1
v 0.4 0.2 0
v 0.4 0.2 -0.2
v 0.4 0.4 0.2
v 0.4 0.4 0
v 0.4 0.4 -0.2
v 0.4 0.4 -0.4
v 0.4 0.6 0.2
v 0.4 0.6 0
v 0.4 0.6 -0.2
v 0.4 0.6 -0.4
v 0.4 0.8 0.2
v 0.4 0.8 0
v 0.4 0.8 -0.2
v 0.4 0.8 -0.4
v 0.4 1 0
v 0.4 1 -0.2
v 0.4 1 -0.4
v 0.4 1.2 0.2
v 0.4 1.2 0
v 0.4 1.2 -0.2
v 0.4 1.2 -0.4
v 0.4 1.4 -0.4
v 0.4 1.4 -0.5
v 0.4 1.6 -0.4
v 0.4 1.6 -0.5
v 0.4 2 0
v 0.4 2 -0.2
v 0.4 2.2 0
v 0.4 2.2 -0.2
v 0.5 1.5 0.3
v 0.5 1.5 0.2
v 0.5 1.7 0.3
v 0.5 1.7 0.2
v 0.6 1.2 0.3
v 0.6 1.2 0
v 0.6 1.2 -0.2
v 0.6 1.2 -0.4
v 0.6 1.2 -0.5
v 0.6 1.4 0.3
v 0.6 1.4 0.2
v 0.6 1.4 0
v 0.6 1.4 -0.2
v 0.6 1.4 -0.4
v 0.6 1.4 -0.5
v 0.6 1.6 0
v 0.6 1.6 -0.2
v 0.6 1.6 -0.4
v 0.6 1.6 -0.5
v 0.6 1.7 0.3
v 0.6 1.7 0.2
v 0.6 1.8 0.4
v 0.6 1.8 0.3
v 0.6 1.8 0.2
v 0.6 1.8 0
v 0.6 1.8 -0.4
v 0.6 1.8 -0.5
v 0.6 2 0.4
v 0.6 2 -0.4
v 0.8 1.6 0
v 0.8 1.6 -0.4
v 0.8 1.8 0
v 0.8 1.8 -0.4
v 1 1 0
v 1 1 -0.2
v 1 1.2 0
v 1 1.2 -0.2
v -0.6 1.8 0.4
v -0.6 2 0.4
v -0.4 2 0.4
v -0.4 2.2 0.4
v -0.2 1.8 0.4
v -0.2 2 0.4
v 0 2 0.4
v 0 2.2 0.4
v 0.4 1.8 0.4
v 0.4 2 0.4
v 0.6 1.8 0.4
v 0.6 2 0.4
v -0.6 1.2 0.3
v -0.6 1.4 0.3
v -0.6 1.7 0.3
v -0.6 1.8 0.3
v -0.5 1.5 0.3
v -0.5 1.7 0.3
v -0.4 0.6 0.3
v -0.4 0.8 0.3
v -0.4 1 0.3
v -0.4 1.2 0.3
v -0.4 1.4 0.3
v -0.4 1.6 0.3
v -0.4 1.8 0.3
v -0.2 0.6 0.3
v -0.2 0.8 0.3
v -0.2 1 0.3
v -0.2 1.2 0.3
v -0.2 1.4 0.3
v -0.2 1.6 0.3
v -0.2 1.8 0.3
v -0.2 1.9 0.3
v -0.1 1.5 0.3
v -0.1 1.7 0.3
v -0.1 1.8 0.3
v -0.1 1.9 0.3
v 0 1 0.3
v 0 1.2 0.3
v 0 1.4 0.3
v 0.1 1.5 0.3
v 0.1 1.7 0.3
v 0.1 1.8 0.3
v 0.1 1.9 0.3
v 0.2 1.2 0.3
v 0.2 1.4 0.3
v 0.2 1.6 0.3
v 0.2 1.8 0.3
v 0.4 1.2 0.3
v 0.4 1.4 0.3
v 0.4 1.6 0.3
v 0.4 1.8 0.3
v 0.4 1.9 0.3
v 0.5 1.5 0.3
v 0.5 1.7 0.3
v 0.6 1.2 0.3
v 0.6 1.4 0.3
v 0.6 1.7 0.3
v 0.6 1.8 0.3
v -0.8 1.6 0.2
v -0.8 1.8 0.2
v -0.6 1.4 0.2
v -0.6 1.6 0.2
v -0.6 1.7 0.2
v -0.6 1.8 0.2
v -0.5 1.5 0.2
v -0.5 1.7 0.2
v -0.4 0.4 0.2
v -0.4 0.6 0.2
v -0.4 1.4 0.2
v -0.4 1.5 0.2
v -0.4 1.6 0.2
v -0.4 1.8 0.2
v -0.3 1.7 0.2
v -0.3 1.8 0.2
v -0.2 0.4 0.2
v -0.2 0.6 0.2
v -0.2 0.8 0.2
v -0.2 1 0.2
v -0.2 1.4 0.2
v -0.2 1.6 0.2
v -0.2 1.7 0.2
v -0.2 1.8 0.2
v -0.2 1.9 0.2
v -0.2 2 0.2
v -0.1 1.5 0.2
v -0.1 1.7 0.2
v -0.1 1.8 0.2
v -0.1 1.9 0.2
v 0 0.4 0.2
v 0 0.6 0.2
v 0 0.8 0.2
v 0 1 0.2
v 0 1.2 0.2
v 0 1.4 0.2
v 0 2 0.2
v 0.1 1.5 0.2
v 0.1 1.7 0.2
v 0.1 1.8 0.2
v 0.1 1.9 0.2
v 0.2 0.6 0.2
v 0.2 0.8 0.2
v 0.2 1 0.2
v 0.2 1.2 0.2
v 0.2 1.4 0.2
v 0.2 1.6 0.2
v 0.2 1.8 0.2
v 0.3 1.7 0.2
v 0.3 1.8 0.2
v 0.4 0.4 0.2
v 0.4 0.6 0.2
v 0.4 0.8 0.2
v 0.4 1.2 0.2
v 0.4 1.4 0.2
v 0.4 1.5 0.2
v 0.4 1.6 0.2
v 0.4 1.7 0.2
v 0.4 1.8 0.2
v 0.4 1.9 0.2
v 0.4 2 0.2
v 0.5 1.5 0.2
v 0.5 1.7 0.2
v 0.6 1.4 0.2
v 0.6 1.7 0.2
v -0.4 0 0.1
v -0.4 0.2 0.1
v -0.2 0 0.1
v -0.2 0.2 0.1
v 0.2 0 0.1
v 0.2 0.2 0.1
v 0.4 0 0.1
v 0.4 0.2 0.1
v -1 1 0
v -1 1.2 0
v -0.8 1.8 0
v -0.8 2 0
v -0.6 1 0
v -0.6 1.2 0
v -0.6 1.8 0
v -0.6 2 0
v -0.4 0.2 0
v -0.4 0.4 0
v -0.4 1 0
v -0.4 1.2 0
v -0.2 0.2 0
v -0.2 0.4 0
v 0 2 0
v 0 2.2 0
v 0.2 0.2 0
v 0.2 0.4 0
v 0.4 0.2 0
v 0.4 0.4 0
v 0.4 1 0
v 0.4 1.2 0
v 0.4 2 0
v 0.4 2.2 0
v 0.6 1 0
v 0.6 1.2 0
v 0.6 1.6 0
v 0.6 1.8 0
v 0.8 1.6 0
v 0.8 1.8 0
v 1 1 0
v 1 1.2 0
v -1 1 -0.2
v -1 1.2 -0.2
v -0.8 1.6 -0.2
v -0.8 2 -0.2
v -0.6 1 -0.2
v -0.6 1.2 -0.2
v -0.6 1.6 -0.2
v -0.6 2 -0.2
v -0.4 0 -0.2
v -0.4 0.2 -0.2
v -0.4 0.4 -0.2
v -0.4 1 -0.2
v -0.4 1.2 -0.2
v -0.4 2 -0.2
v -0.4 2.2 -0.2
v -0.2 0 -0.2
v -0.2 0.2 -0.2
v -0.2 0.4 -0.2
v 0.2 0 -0.2
v 0.2 0.2 -0.2
v 0.2 0.4 -0.2
v 0.4 0 -0.2
v 0.4 0.2 -0.2
v 0.4 0.4 -0.2
v 0.4 1 -0.2
v 0.4 1.2 -0.2
v 0.4 2 -0.2
v 0.4 2.2 -0.2
v 0.6 1 -0.2
v 0.6 1.2 -0.2
v 1 1 -0.2
v 1 1.2 -0.2
v -0.6 1.4 -0.4
v -0.6 1.6 -0.4
v -0.6 1.8 -0.4
v -0.6 2 -0.4
v -0.4 0.4 -0.4
v -0.4 0.6 -0.4
v -0.4 0.8 -0.4
v -0.4 1 -0.4
v -0.4 1.2 -0.4
v -0.4 1.4 -0.4
v -0.4 1.6 -0.4
v -0.2 0.4 -0.4
v -0.2 0.6 -0.4
v -0.2 0.8 -0.4
v -0.2 1 -0.4
v -0.2 1.2 -0.4
v 0 0.6 -0.4
v 0 0.8 -0.4
v 0 1 -0.4
v 0 1.2 -0.4
v 0.2 0.4 -0.4
v 0.2 0.6 -0.4
v 0.2 0.8 -0.4
v 0.2 1 -0.4
v 0.2 1.2 -0.4
v 0.4 0.4 -0.4
v 0.4 0.6 -0.4
v 0.4 0.8 -0.4
v 0.4 1 -0.4
v 0.4 1.2 -0.4
v 0.4 1.4 -0.4
v 0.4 1.6 -0.4
v 0.6 1.4 -0.4
v 0.6 1.6 -0.4
v 0.6 1.8 -0.4
v 0.6 2 -0.4
v 0.8 1.6 -0.4
v 0.8 1.8 -0.4
v -0.6 1.2 -0.5
v -0.6 1.4 -0.5
v -0.6 1.6 -0.5
v -0.6 1.8 -0.5
v -0.4 1.4 -0.5
v -0.4 1.6 -0.5
v -0.2 1.2 -0.5
v -0.2 1.4 -0.5
v 0.2 1.2 -0.5
v 0.2 1.4 -0.5
v 0.4 1.2 -0.5
v 0.4 1.4 -0.5
v 0.4 1.6 -0.5
v 0.6 1.2 -0.5
v 0.6 1.4 -0.5
v 0.6 1.6 -0.5
v 0.6 1.8 -0.5
v -0.4 0 0.1
v -0.2 0 0.1
v 0.2 0 0.1
v 0.4 0 0.1
v -0.4 0 -0.2
v -0.2 0 -0.2
v 0.2 0 -0.2
v 0.4 0 -0.2
v -0.4 0.4 0.2
v -0.2 0.4 0.2
v 0 0.4 0.2
v 0.4 0.4 0.2
v -0.4 0.4 0
v -0.2 0.4 0
v 0 0.4 0
v 0.2 0.4 0
v 0.4 0.4 0
v -0.4 0.4 -0.2
v -0.2 0.4 -0.2
v 0.2 0.4 -0.2
v 0.4 0.4 -0.2
v -0.4 0.4 -0.4
v -0.2 0.4 -0.4
v 0.2 0.4 -0.4
v 0.4 0.4 -0.4
v -0.4 0.6 0.3
v -0.2 0.6 0.3
v -0.4 0.6 0.2
v -0.2 0.6 0.2
v -0.2 1 0.3
v 0 1 0.3
v -0.2 1 0.2
v 0 1 0.2
v -1 1 0
v -0.6 1 0
v -0.4 1 0
v 0.4 1 0
v 0.6 1 0
v 1 1 0
v -1 1 -0.2
v -0.6 1 -0.2
v -0.4 1 -0.2
v 0.4 1 -0.2
v 0.6 1 -0.2
v 1 1 -0.2
v -0.6 1.2 0.3
v -0.4 1.2 0.3
v 0 1.2 0.3
v 0.2 1.2 0.3
v 0.4 1.2 0.3
v 0.6 1.2 0.3
v -0.6 1.2 0.2
v -0.4 1.2 0.2
v 0 1.2 0.2
v 0.2 1.2 0.2
v 0.4 1.2 0.2
v -0.6 1.2 0
v -0.4 1.2 0
v 0.4 1.2 0
v 0.6 1.2 0
v -0.6 1.2 -0.2
v -0.4 1.2 -0.2
v 0.4 1.2 -0.2
v 0.6 1.2 -0.2
v -0.4 1.2 -0.4
v -0.2 1.2 -0.4
v 0 1.2 -0.4
v 0.2 1.2 -0.4
v 0.4 1.2 -0.4
v 0.6 1.2 -0.4
v -0.6 1.2 -0.5
v -0.2 1.2 -0.5
v 0.2 1.2 -0.5
v 0.4 1.2 -0.5
v 0.6 1.2 -0.5
v -0.5 1.5 0.3
v -0.1 1.5 0.3
v 0.1 1.5 0.3
v 0.5 1.5 0.3
v -0.5 1.5 0.2
v -0.4 1.5 0.2
v -0.1 1.5 0.2
v 0.1 1.5 0.2
v 0.4 1.5 0.2
v 0.5 1.5 0.2
v -0.8 1.6 0.2
v -0.6 1.6 0.2
v -0.6 1.6 0
v 0.6 1.6 0
v 0.8 1.6 0
v -0.8 1.6 -0.2
v -0.6 1.6 -0.2
v 0.6 1.6 -0.2
v -0.6 1.6 -0.4
v -0.4 1.6 -0.4
v 0.4 1.6 -0.4
v 0.6 1.6 -0.4
v 0.8 1.6 -0.4
v -0.6 1.6 -0.5
v -0.4 1.6 -0.5
v 0.4 1.6 -0.5
v 0.6 1.6 -0.5
v -0.6 1.7 0.3
v -0.5 1.7 0.3
v -0.1 1.7 0.3
v 0.1 1.7 0.3
v 0.5 1.7 0.3
v 0.6 1.7 0.3
v -0.6 1.7 0.2
v -0.5 1.7 0.2
v -0.1 1.7 0.2
v 0.1 1.7 0.2
v 0.5 1.7 0.2
v 0.6 1.7 0.2
v -0.6 1.8 0.4
v -0.2 1.8 0.4
v 0.4 1.8 0.4
v 0.6 1.8 0.4
v -0.6 1.8 0.3
v -0.4 1.8 0.3
v -0.2 1.8 0.3
v 0.2 1.8 0.3
v 0.4 1.8 0.3
v 0.6 1.8 0.3
v -0.4 1.8 0.2
v -0.3 1.8 0.2
v -0.2 1.8 0.2
v 0.2 1.8 0.2
v 0.3 1.8 0.2
v 0.4 1.8 0.2
v -0.2 2 0.4
v 0 2 0.4
v -0.2 2 0.2
v 0 2 0.2
v -0.4 0.2 0.1
v -0.2 0.2 0.1
v 0.2 0.2 0.1
v 0.4 0.2 0.1
v -0.4 0.2 0
v -0.2 0.2 0
v 0.2 0.2 0
v 0.4 0.2 0
v -1 1.2 0
v -0.6 1.2 0
v 0.6 1.2 0
v 1 1.2 0
v -1 1.2 -0.2
v -0.6 1.2 -0.2
v 0.6 1.2 -0.2
v 1 1.2 -0.2
v -0.6 1.4 0.3
v -0.4 1.4 0.3
v -0.2 1.4 0.3
v 0 1.4 0.3
v 0.2 1.4 0.3
v 0.4 1.4 0.3
v 0.6 1.4 0.3
v -0.6 1.4 0.2
v -0.4 1.4 0.2
v -0.2 1.4 0.2
v 0 1.4 0.2
v 0.2 1.4 0.2
v 0.4 1.4 0.2
v 0.6 1.4 0.2
v -0.6 1.4 -0.4
v -0.4 1.4 -0.4
v 0.4 1.4 -0.4
v 0.6 1.4 -0.4
v -0.6 1.4 -0.5
v -0.4 1.4 -0.5
v 0.4 1.4 -0.5
v 0.6 1.4 -0.5
v -0.4 1.6 0.3
v -0.2 1.6 0.3
v 0.2 1.6 0.3
v 0.4 1.6 0.3
v -0.4 1.6 0.2
v -0.2 1.6 0.2
v 0.2 1.6 0.2
v 0.4 1.6 0.2
v -0.1 1.8 0.3
v 0.1 1.8 0.3
v -0.8 1.8 0.2
v -0.6 1.8 0.2
v -0.1 1.8 0.2
v 0.1 1.8 0.2
v -0.8 1.8 0
v -0.6 1.8 0
v 0.6 1.8 0
v 0.8 1.8 0
v -0.6 1.8 -0.4
v 0.6 1.8 -0.4
v 0.8 1.8 -0.4
v -0.6 1.8 -0.5
v 0.6 1.8 -0.5
v -0.2 1.9 0.3
v -0.1 1.9 0.3
v 0.1 1.9 0.3
v 0.4 1.9 0.3
v -0.2 1.9 0.2
v -0.1 1.9 0.2
v 0.1 1.9 0.2
v 0.4 1.9 0.2
v -0.6 2 0.4
v -0.4 2 0.4
v 0.4 2 0.4
v 0.6 2 0.4
v 0 2 0.2
v 0.4 2 0.2
v -0.8 2 0
v -0.6 2 0
v 0 2 0
v 0.4 2 0
v -0.8 2 -0.2
v -0.6 2 -0.2
v -0.4 2 -0.2
v 0.4 2 -0.2
v -0.6 2 -0.4
v 0.6 2 -0.4
v -0.4 2.2 0.4
v 0 2.2 0.4
v 0 2.2 0
v 0.4 2.2 0
v -0.4 2.2 -0.2
v 0.4 2.2 -0.2

# faces
f 3/12/1 2/12/1 1/12/1
f 4/12/1 2/12/1 3/12/1
f 7/15/1 6/15/1 5/15/1
f 8/15/1 6/15/1 7/15/1
f 9/15/1 6/15/1 8/15/1
f 10/15/1 6/15/1 9/15/1
f 16/13/1 12/13/1 11/13/1
f 17/6/1 13/6/1 12/6/1
f 17/13/1 12/13/1 16/13/1
f 18/2/1 14/2/1 13/2/1
f 18/6/1 13/6/1 17/6/1
f 19/6/1 15/6/1 14/6/1
f 19/2/1 14/2/1 18/2/1
f 20/6/1 15/6/1 19/6/1
f 21/6/1 15/6/1 20/6/1
f 22/15/1 18/15/1 17/15/1
f 23/12/1 19/12/1 18/12/1
f 23/15/1 18/15/1 22/15/1
f 24/15/1 20/15/1 19/15/1
f 24/12/1 19/12/1 23/12/1
f 25/15/1 20/15/1 24/15/1
f 30/8/1 28/8/1 27/8/1
f 31/8/1 28/8/1 30/8/1
f 33/15/1 26/15/1 25/15/1
f 33/15/1 25/15/1 24/15/1
f 34/15/1 26/15/1 33/15/1
f 35/15/1 32/15/1 31/15/1
f 35/15/1 31/15/1 30/15/1
f 35/15/1 30/15/1 29/15/1
f 36/15/1 32/15/1 35/15/1
f 37/15/1 33/15/1 24/15/1
f 38/15/1 33/15/1 37/15/1
f 41/8/1 40/8/1 39/8/1
f 42/8/1 40/8/1 41/8/1
f 45/9/1 44/9/1 43/9/1
f 46/9/1 44/9/1 45/9/1
f 47/9/1 44/9/1 46/9/1
f 49/3/1 47/3/1 46/3/1
f 50/3/1 47/3/1 49/3/1
f 53/10/1 50/10/1 49/10/1
f 53/10/1 51/10/1 50/10/1
f 53/10/1 49/10/1 48/10/1
f 54/10/1 51/10/1 53/10/1
f 55/10/1 51/10/1 54/10/1
f 56/13/1 53/13/1 52/13/1
f 57/1/1 54/1/1 53/1/1
f 57/13/1 53/13/1 56/13/1
f 58/4/1 55/4/1 54/4/1
f 58/1/1 54/1/1 57/1/1
f 59/4/1 55/4/1 58/4/1
f 60/4/1 55/4/1 59/4/1
f 61/6/1 57/6/1 56/6/1
f 62/4/1 58/4/1 57/4/1
f 62/6/1 57/6/1 61/6/1
f 63/1/1 59/1/1 58/1/1
f 63/4/1 58/4/1 62/4/1
f 64/11/1 60/11/1 59/11/1
f 64/1/1 59/1/1 63/1/1
f 65/11/1 60/11/1 64/11/1
f 66/13/1 62/13/1 61/13/1
f 67/11/1 63/11/1 62/11/1
f 67/13/1 62/13/1 66/13/1
f 68/11/1 63/11/1 67/11/1
f 69/4/1 65/4/1 64/4/1
f 70/4/1 65/4/1 69/4/1
f 73/15/1 72/15/1 71/15/1
f 74/15/1 72/15/1 73/15/1
f 77/15/1 76/15/1 75/15/1
f 78/15/1 76/15/1 77/15/1
f 81/8/1 80/8/1 79/8/1
f 82/8/1 81/8/1 79/8/1
f 83/8/1 81/8/1 82/8/1
f 86/8/1 85/8/1 84/8/1
f 87/8/1 85/8/1 86/8/1
f 90/8/1 89/8/1 88/8/1
f 91/8/1 89/8/1 90/8/1
f 94/9/1 93/9/1 92/9/1
f 95/9/1 93/9/1 94/9/1
f 96/9/1 93/9/1 95/9/1
f 97/3/1 96/3/1 95/3/1
f 98/3/1 96/3/1 97/3/1
f 101/8/1 100/8/1 99/8/1
f 103/8/1 101/8/1 99/8/1
f 104/8/1 101/8/1 103/8/1
f 105/15/1 103/15/1 102/15/1
f 107/15/1 105/15/1 102/15/1
f 107/15/1 106/15/1 105/15/1
f 108/15/1 106/15/1 107/15/1
f 109/8/2 110/8/2 111/8/2
f 111/8/2 110/8/2 112/8/2
f 113/9/2 114/9/2 115/9/2
f 115/9/2 114/9/2 116/9/2
f 116/9/2 114/9/2 117/9/2
f 116/3/2 117/3/2 118/3/2
f 118/3/2 117/3/2 119/3/2
f 120/13/2 121/13/2 122/13/2
f 122/13/2 121/13/2 123/13/2
f 122/6/2 123/6/2 124/6/2
f 124/6/2 123/6/2 125/6/2
f 126/15/2 127/15/2 128/15/2
f 126/15/2 128/15/2 130/15/2
f 128/15/2 129/15/2 130/15/2
f 130/15/2 129/15/2 131/15/2
f 132/8/2 133/8/2 134/8/2
f 134/8/2 133/8/2 135/8/2
f 136/8/2 137/8/2 138/8/2
f 138/8/2 137/8/2 139/8/2
f 140/6/2 141/6/2 142/6/2
f 142/6/2 141/6/2 143/6/2
f 144/15/2 145/15/2 147/15/2
f 145/15/2 146/15/2 147/15/2
f 147/15/2 146/15/2 148/15/2
f 149/8/2 150/8/2 151/8/2
f 151/8/2 150/8/2 152/8/2
f 153/9/2 154/9/2 155/9/2
f 155/9/2 154/9/2 156/9/2
f 156/9/2 154/9/2 157/9/2
f 156/3/2 157/3/2 159/3/2
f 159/3/2 157/3/2 160/3/2
f 159/10/2 160/10/2 162/10/2
f 160/10/2 161/10/2 162/10/2
f 158/10/2 159/10/2 162/10/2
f 162/10/2 161/10/2 163/10/2
f 163/10/2 161/10/2 164/10/2
f 164/10/2 161/10/2 165/10/2
f 162/11/2 163/11/2 166/11/2
f 163/4/2 164/4/2 167/4/2
f 166/11/2 163/11/2 167/11/2
f 164/11/2 165/11/2 168/11/2
f 167/4/2 164/4/2 168/4/2
f 168/11/2 165/11/2 169/11/2
f 166/4/2 167/4/2 170/4/2
f 167/1/2 168/1/2 170/1/2
f 168/4/2 169/4/2 171/4/2
f 170/1/2 168/1/2 171/1/2
f 171/4/2 169/4/2 172/4/2
f 166/4/2 170/4/2 173/4/2
f 173/4/2 170/4/2 174/4/2
f 171/1/2 172/1/2 175/1/2
f 175/1/2 172/1/2 176/1/2
f 177/15/2 178/15/2 179/15/2
f 179/15/2 178/15/2 180/15/2
f 181/15/2 182/15/2 183/15/2
f 183/15/2 182/15/2 184/15/2
f 185/8/2 186/8/2 187/8/2
f 187/8/2 186/8/2 188/8/2
f 189/13/2 190/13/2 194/13/2
f 194/13/2 190/13/2 195/13/2
f 190/6/2 191/6/2 196/6/2
f 195/13/2 190/13/2 196/13/2
f 191/13/2 192/13/2 197/13/2
f 196/6/2 191/6/2 197/6/2
f 192/6/2 193/6/2 198/6/2
f 197/13/2 192/13/2 198/13/2
f 198/6/2 193/6/2 199/6/2
f 196/12/2 197/12/2 200/12/2
f 195/15/2 196/15/2 200/15/2
f 197/15/2 198/15/2 201/15/2
f 200/12/2 197/12/2 201/12/2
f 201/15/2 198/15/2 202/15/2
f 195/15/2 200/15/2 205/15/2
f 204/8/2 205/8/2 207/8/2
f 205/15/2 200/15/2 208/15/2
f 207/8/2 205/8/2 208/8/2
f 208/15/2 200/15/2 209/15/2
f 202/15/2 203/15/2 210/15/2
f 210/15/2 203/15/2 211/15/2
f 208/15/2 209/15/2 212/15/2
f 206/15/2 207/15/2 212/15/2
f 209/15/2 210/15/2 212/15/2
f 207/15/2 208/15/2 212/15/2
f 212/15/2 210/15/2 213/15/2
f 214/15/2 215/15/2 216/15/2
f 216/15/2 215/15/2 217/15/2
f 218/12/2 219/12/2 220/12/2
f 220/12/2 219/12/2 221/12/2
f 224/15/3 223/15/3 222/15/3
f 226/15/3 224/15/3 222/15/3
f 226/15/3 225/15/3 224/15/3
f 227/15/3 225/15/3 226/15/3
f 228/15/3 225/15/3 227/15/3
f 229/15/3 225/15/3 228/15/3
f 232/15/3 231/15/3 230/15/3
f 233/15/3 231/15/3 232/15/3
f 239/8/3 237/8/3 236/8/3
f 243/13/3 235/13/3 234/13/3
f 244/13/3 235/13/3 243/13/3
f 245/8/3 239/8/3 238/8/3
f 246/8/3 237/8/3 239/8/3
f 246/8/3 239/8/3 245/8/3
f 247/13/3 241/13/3 240/13/3
f 248/6/3 242/6/3 241/6/3
f 248/13/3 241/13/3 247/13/3
f 249/13/3 243/13/3 242/13/3
f 249/6/3 242/6/3 248/6/3
f 250/6/3 244/6/3 243/6/3
f 250/13/3 243/13/3 249/13/3
f 251/6/3 244/6/3 250/6/3
f 252/8/3 245/8/3 238/8/3
f 255/8/3 254/8/3 253/8/3
f 255/8/3 252/8/3 238/8/3
f 255/8/3 253/8/3 252/8/3
f 256/8/3 254/8/3 255/8/3
f 257/8/3 254/8/3 256/8/3
f 258/8/3 254/8/3 257/8/3
f 259/6/3 250/6/3 249/6/3
f 260/13/3 251/13/3 250/13/3
f 260/6/3 250/6/3 259/6/3
f 261/13/3 251/13/3 260/13/3
f 263/8/3 257/8/3 256/8/3
f 264/8/3 257/8/3 263/8/3
f 266/2/3 261/2/3 260/2/3
f 267/2/3 261/2/3 266/2/3
f 268/8/3 265/8/3 264/8/3
f 268/8/3 263/8/3 262/8/3
f 268/8/3 264/8/3 263/8/3
f 269/8/3 265/8/3 268/8/3
f 270/6/3 267/6/3 266/6/3
f 271/6/3 267/6/3 270/6/3
f 272/8/3 268/8/3 262/8/3
f 273/8/3 265/8/3 269/8/3
f 274/8/3 265/8/3 273/8/3
f 275/8/3 272/8/3 262/8/3
f 275/8/3 273/8/3 272/8/3
f 276/8/3 273/8/3 275/8/3
f 277/13/3 271/13/3 270/13/3
f 278/13/3 271/13/3 277/13/3
f 279/8/3 273/8/3 276/8/3
f 280/8/3 273/8/3 279/8/3
f 284/15/3 282/15/3 281/15/3
f 285/15/3 282/15/3 284/15/3
f 286/15/3 282/15/3 285/15/3
f 287/15/3 284/15/3 283/15/3
f 287/15/3 285/15/3 284/15/3
f 288/15/3 285/15/3 287/15/3
f 291/15/3 287/15/3 283/15/3
f 292/15/3 287/15/3 291/15/3
f 295/14/3 294/14/3 293/14/3
f 296/14/3 294/14/3 295/14/3
f 297/10/3 290/10/3 289/10/3
f 298/10/3 290/10/3 297/10/3
f 301/12/3 292/12/3 291/12/3
f 302/14/3 295/14/3 293/14/3
f 303/7/3 296/7/3 295/7/3
f 303/14/3 295/14/3 302/14/3
f 304/7/3 296/7/3 303/7/3
f 307/12/3 292/12/3 301/12/3
f 310/15/3 306/15/3 305/15/3
f 311/3/3 298/3/3 297/3/3
f 312/11/3 299/11/3 298/11/3
f 312/3/3 298/3/3 311/3/3
f 313/4/3 300/4/3 299/4/3
f 313/11/3 299/11/3 312/11/3
f 314/4/3 300/4/3 313/4/3
f 316/12/3 308/12/3 307/12/3
f 316/12/3 307/12/3 301/12/3
f 317/15/3 310/15/3 309/15/3
f 317/15/3 306/15/3 310/15/3
f 318/12/3 308/12/3 316/12/3
f 319/12/3 308/12/3 318/12/3
f 320/15/3 317/15/3 309/15/3
f 321/15/3 317/15/3 320/15/3
f 322/10/3 312/10/3 311/10/3
f 322/4/3 313/4/3 312/4/3
f 323/11/3 314/11/3 313/11/3
f 323/4/3 313/4/3 322/4/3
f 324/1/3 315/1/3 314/1/3
f 324/11/3 314/11/3 323/11/3
f 325/1/3 315/1/3 324/1/3
f 326/12/3 318/12/3 316/12/3
f 329/14/3 328/14/3 327/14/3
f 330/14/3 328/14/3 329/14/3
f 331/10/3 322/10/3 311/10/3
f 332/11/3 323/11/3 322/11/3
f 332/10/3 322/10/3 331/10/3
f 333/4/3 325/4/3 324/4/3
f 333/11/3 323/11/3 332/11/3
f 333/4/3 324/4/3 323/4/3
f 334/4/3 325/4/3 333/4/3
f 335/12/3 318/12/3 326/12/3
f 336/12/3 318/12/3 335/12/3
f 337/14/3 329/14/3 327/14/3
f 338/7/3 330/7/3 329/7/3
f 338/14/3 329/14/3 337/14/3
f 339/7/3 330/7/3 338/7/3
f 340/15/3 317/15/3 321/15/3
f 341/15/3 317/15/3 340/15/3
f 342/15/3 336/15/3 335/15/3
f 344/15/3 342/15/3 335/15/3
f 344/15/3 343/15/3 342/15/3
f 345/15/3 343/15/3 344/15/3
f 348/9/3 347/9/3 346/9/3
f 349/9/3 347/9/3 348/9/3
f 352/9/3 351/9/3 350/9/3
f 353/9/3 351/9/3 352/9/3
f 358/12/3 355/12/3 354/12/3
f 359/12/3 355/12/3 358/12/3
f 360/15/3 357/15/3 356/15/3
f 361/15/3 357/15/3 360/15/3
f 364/1/3 359/1/3 358/1/3
f 365/1/3 359/1/3 364/1/3
f 366/3/3 363/3/3 362/3/3
f 367/3/3 363/3/3 366/3/3
f 372/3/3 371/3/3 370/3/3
f 373/3/3 371/3/3 372/3/3
f 376/15/3 369/15/3 368/15/3
f 377/15/3 369/15/3 376/15/3
f 378/11/3 375/11/3 374/11/3
f 379/11/3 375/11/3 378/11/3
f 382/15/3 381/15/3 380/15/3
f 383/15/3 381/15/3 382/15/3
f 384/12/3 379/12/3 378/12/3
f 385/12/3 379/12/3 384/12/3
f 386/12/4 387/12/4 390/12/4
f 390/12/4 387/12/4 391/12/4
f 388/15/4 389/15/4 392/15/4
f 392/15/4 389/15/4 393/15/4
f 390/1/4 391/1/4 397/1/4
f 397/1/4 391/1/4 398/1/4
f 394/9/4 395/9/4 401/9/4
f 395/3/4 396/3/4 402/3/4
f 401/9/4 395/9/4 402/9/4
f 402/3/4 396/3/4 403/3/4
f 404/9/4 405/9/4 407/9/4
f 405/3/4 406/3/4 408/3/4
f 407/9/4 405/9/4 408/9/4
f 408/3/4 406/3/4 409/3/4
f 399/15/4 400/15/4 412/15/4
f 412/15/4 400/15/4 413/15/4
f 410/11/4 411/11/4 414/11/4
f 414/11/4 411/11/4 415/11/4
f 414/12/4 415/12/4 416/12/4
f 416/12/4 415/12/4 417/12/4
f 418/15/4 419/15/4 427/15/4
f 427/15/4 419/15/4 428/15/4
f 422/10/4 423/10/4 429/10/4
f 423/4/4 424/4/4 430/4/4
f 429/10/4 423/10/4 430/10/4
f 424/11/4 425/11/4 431/11/4
f 430/4/4 424/4/4 431/4/4
f 425/4/4 426/4/4 432/4/4
f 431/11/4 425/11/4 432/11/4
f 432/4/4 426/4/4 433/4/4
f 430/1/4 431/1/4 434/1/4
f 429/3/4 430/3/4 434/3/4
f 432/11/4 433/11/4 435/11/4
f 434/1/4 431/1/4 435/1/4
f 431/11/4 432/11/4 435/11/4
f 435/11/4 433/11/4 436/11/4
f 436/11/4 433/11/4 437/11/4
f 429/3/4 434/3/4 438/3/4
f 434/4/4 435/4/4 439/4/4
f 438/3/4 434/3/4 439/3/4
f 435/11/4 436/11/4 440/11/4
f 439/4/4 435/4/4 440/4/4
f 436/4/4 437/4/4 441/4/4
f 440/11/4 436/11/4 441/11/4
f 441/4/4 437/4/4 442/4/4
f 438/10/4 439/10/4 443/10/4
f 439/11/4 440/11/4 444/11/4
f 443/10/4 439/10/4 444/10/4
f 440/4/4 441/4/4 445/4/4
f 444/11/4 440/11/4 445/11/4
f 441/1/4 442/1/4 446/1/4
f 445/4/4 441/4/4 446/4/4
f 446/1/4 442/1/4 447/1/4
f 448/15/4 449/15/4 450/15/4
f 450/15/4 449/15/4 451/15/4
f 420/15/4 421/15/4 452/15/4
f 452/15/4 421/15/4 453/15/4
f 451/15/4 452/15/4 454/15/4
f 454/15/4 452/15/4 455/15/4
f 456/6/4 457/6/4 460/6/4
f 458/15/4 459/15/4 461/15/4
f 456/6/4 460/6/4 462/6/4
f 460/15/4 461/15/4 463/15/4
f 462/6/4 460/6/4 463/6/4
f 462/13/4 463/13/4 464/13/4
f 463/15/4 461/15/4 465/15/4
f 464/13/4 463/13/4 465/13/4
f 464/2/4 465/2/4 466/2/4
f 465/15/4 461/15/4 467/15/4
f 466/2/4 465/2/4 467/2/4
f 461/15/4 459/15/4 468/15/4
f 467/15/4 461/15/4 468/15/4
f 466/6/4 467/6/4 469/6/4
f 469/6/4 467/6/4 470/6/4
f 468/15/4 459/15/4 471/15/4
f 471/15/4 459/15/4 472/15/4
f 477/9/5 474/9/5 473/9/5
f 478/9/5 474/9/5 477/9/5
f 479/9/5 476/9/5 475/9/5
f 480/9/5 476/9/5 479/9/5
f 485/10/5 482/10/5 481/10/5
f 486/3/5 483/3/5 482/3/5
f 486/10/5 482/10/5 485/10/5
f 487/10/5 484/10/5 483/10/5
f 487/3/5 483/3/5 486/3/5
f 488/10/5 484/10/5 487/10/5
f 489/10/5 484/10/5 488/10/5
f 491/10/5 487/10/5 486/10/5
f 491/10/5 488/10/5 487/10/5
f 492/10/5 488/10/5 491/10/5
f 494/10/5 491/10/5 490/10/5
f 495/3/5 492/3/5 491/3/5
f 495/10/5 491/10/5 494/10/5
f 496/10/5 493/10/5 492/10/5
f 496/3/5 492/3/5 495/3/5
f 497/10/5 493/10/5 496/10/5
f 500/13/5 499/13/5 498/13/5
f 501/13/5 499/13/5 500/13/5
f 504/6/5 503/6/5 502/6/5
f 505/6/5 503/6/5 504/6/5
f 512/12/5 507/12/5 506/12/5
f 513/1/5 508/1/5 507/1/5
f 513/12/5 507/12/5 512/12/5
f 514/1/5 508/1/5 513/1/5
f 515/11/5 510/11/5 509/11/5
f 516/12/5 511/12/5 510/12/5
f 516/11/5 510/11/5 515/11/5
f 517/12/5 511/12/5 516/12/5
f 524/13/5 519/13/5 518/13/5
f 525/13/5 519/13/5 524/13/5
f 526/2/5 521/2/5 520/2/5
f 527/6/5 522/6/5 521/6/5
f 527/2/5 521/2/5 526/2/5
f 528/13/5 523/13/5 522/13/5
f 528/6/5 522/6/5 527/6/5
f 529/6/5 525/6/5 524/6/5
f 530/6/5 525/6/5 529/6/5
f 531/13/5 523/13/5 528/13/5
f 532/13/5 523/13/5 531/13/5
f 537/6/5 534/6/5 533/6/5
f 541/13/5 536/13/5 535/13/5
f 542/13/5 536/13/5 541/13/5
f 543/6/5 537/6/5 533/6/5
f 543/6/5 538/6/5 537/6/5
f 544/13/5 540/13/5 539/13/5
f 544/6/5 538/6/5 543/6/5
f 544/13/5 539/13/5 538/13/5
f 545/2/5 541/2/5 540/2/5
f 545/13/5 540/13/5 544/13/5
f 546/6/5 542/6/5 541/6/5
f 546/2/5 541/2/5 545/2/5
f 547/6/5 542/6/5 546/6/5
f 552/8/5 549/8/5 548/8/5
f 553/8/5 549/8/5 552/8/5
f 554/8/5 549/8/5 553/8/5
f 555/8/5 551/8/5 550/8/5
f 556/8/5 551/8/5 555/8/5
f 557/8/5 551/8/5 556/8/5
f 560/15/5 559/15/5 558/15/5
f 563/15/5 560/15/5 558/15/5
f 564/15/5 560/15/5 563/15/5
f 565/15/5 562/15/5 561/15/5
f 569/15/5 562/15/5 565/15/5
f 570/15/5 562/15/5 569/15/5
f 571/15/5 567/15/5 566/15/5
f 572/15/5 567/15/5 571/15/5
f 573/15/5 569/15/5 568/15/5
f 574/15/5 569/15/5 573/15/5
f 581/8/5 576/8/5 575/8/5
f 582/8/5 576/8/5 581/8/5
f 583/8/5 578/8/5 577/8/5
f 584/8/5 578/8/5 583/8/5
f 585/8/5 580/8/5 579/8/5
f 586/8/5 580/8/5 585/8/5
f 591/15/5 588/15/5 587/15/5
f 592/15/5 588/15/5 591/15/5
f 593/15/5 588/15/5 592/15/5
f 595/15/5 590/15/5 589/15/5
f 596/15/5 590/15/5 595/15/5
f 597/15/5 593/15/5 592/15/5
f 598/15/5 593/15/5 597/15/5
f 599/15/5 593/15/5 598/15/5
f 600/8/5 595/8/5 594/8/5
f 601/8/5 595/8/5 600/8/5
f 602/8/5 595/8/5 601/8/5
f 605/15/5 604/15/5 603/15/5
f 606/15/5 604/15/5 605/15/5
f 607/9/6 608/9/6 611/9/6
f 611/9/6 608/9/6 612/9/6
f 609/9/6 610/9/6 613/9/6
f 613/9/6 610/9/6 614/9/6
f 615/12/6 616/12/6 619/12/6
f 619/12/6 616/12/6 620/12/6
f 617/12/6 618/12/6 621/12/6
f 621/12/6 618/12/6 622/12/6
f 623/13/6 624/13/6 630/13/6
f 624/6/6 625/6/6 631/6/6
f 630/13/6 624/13/6 631/13/6
f 625/13/6 626/13/6 632/13/6
f 631/6/6 625/6/6 632/6/6
f 626/2/6 627/2/6 633/2/6
f 632/13/6 626/13/6 633/13/6
f 627/6/6 628/6/6 634/6/6
f 633/2/6 627/2/6 634/2/6
f 628/13/6 629/13/6 635/13/6
f 634/6/6 628/6/6 635/6/6
f 635/13/6 629/13/6 636/13/6
f 637/6/6 638/6/6 641/6/6
f 641/6/6 638/6/6 642/6/6
f 639/6/6 640/6/6 643/6/6
f 643/6/6 640/6/6 644/6/6
f 645/8/6 646/8/6 649/8/6
f 649/8/6 646/8/6 650/8/6
f 647/8/6 648/8/6 651/8/6
f 651/8/6 648/8/6 652/8/6
f 653/8/6 654/8/6 657/8/6
f 657/8/6 654/8/6 658/8/6
f 655/15/6 656/15/6 659/15/6
f 659/15/6 656/15/6 660/15/6
f 661/15/6 662/15/6 664/15/6
f 664/15/6 662/15/6 665/15/6
f 663/15/6 664/15/6 666/15/6
f 666/15/6 664/15/6 667/15/6
f 668/8/6 669/8/6 672/8/6
f 672/8/6 669/8/6 673/8/6
f 670/8/6 671/8/6 674/8/6
f 674/8/6 671/8/6 675/8/6
f 678/15/6 679/15/6 681/15/6
f 676/15/6 677/15/6 683/15/6
f 680/15/6 681/15/6 684/15/6
f 681/15/6 679/15/6 685/15/6
f 684/15/6 681/15/6 685/15/6
f 682/15/6 683/15/6 686/15/6
f 683/15/6 677/15/6 687/15/6
f 686/15/6 683/15/6 687/15/6
f 687/15/6 677/15/6 688/15/6
f 685/15/6 679/15/6 689/15/6
f 687/15/6 688/15/6 690/15/6
f 688/15/6 689/15/6 690/15/6
f 689/15/6 679/15/6 691/15/6
f 690/15/6 689/15/6 691/15/6
f 692/15/6 693/15/6 694/15/6
f 692/15/6 694/15/6 696/15/6
f 694/15/6 695/15/6 696/15/6
f 696/15/6 695/15/6 697/15/6
