# MagicaVoxel @ Ephtracy

# group
o 

# material
mtllib tree_a_bottom.mtl
usemtl palette

# normals
vn -1 0 0
vn 1 0 0
vn 0 0 1
vn 0 0 -1
vn 0 -1 0
vn 0 1 0

# texcoords
vt 0.298828 0.5
vt 0.302734 0.5
vt 0.306641 0.5

# verts
v -0.6 0 0.4
v -0.6 0 1.19209e-007
v -0.6 0.1 0.4
v -0.6 0.1 1.19209e-007
v -0.5 0 1.19209e-007
v -0.5 0 -0.0999998
v -0.5 0 -0.2
v -0.5 0 -0.5
v -0.5 0.1 0.3
v -0.5 0.1 1.19209e-007
v -0.5 0.1 -0.2
v -0.5 0.1 -0.5
v -0.5 0.2 0.3
v -0.5 0.2 0.1
v -0.5 0.3 0.1
v -0.5 0.3 -0.0999998
v -0.4 0 -0.0999998
v -0.4 0 -0.2
v -0.4 0.1 -0.2
v -0.4 0.1 -0.4
v -0.4 0.2 0.3
v -0.4 0.2 0.1
v -0.4 0.2 -0.3
v -0.4 0.2 -0.4
v -0.4 0.3 0.1
v -0.4 0.3 -0.0999998
v -0.4 0.4 -0.0999998
v -0.4 0.4 -0.2
v -0.4 0.5 0.3
v -0.4 0.5 0.2
v -0.4 0.5 -0.0999998
v -0.4 0.5 -0.2
v -0.4 0.5 -0.3
v -0.4 0.7 0.2
v -0.4 0.7 -0.0999998
v -0.3 0.1 0.4
v -0.3 0.1 0.3
v -0.3 0.2 -0.3
v -0.3 0.2 -0.4
v -0.3 0.3 -0.3
v -0.3 0.3 -0.4
v -0.3 0.4 0.4
v -0.3 0.4 0.3
v -0.3 0.5 -0.0999998
v -0.3 0.5 -0.2
v -0.3 0.5 -0.3
v -0.3 0.5 -0.4
v -0.3 0.7 -0.0999998
v -0.3 0.7 -0.2
v -0.2 0 0.5
v -0.2 0 0.4
v -0.2 0.3 0.5
v -0.2 0.3 0.4
v -0.2 0.5 0.3
v -0.2 0.5 0.2
v -0.2 0.5 -0.2
v -0.2 0.5 -0.3
v -0.2 0.7 0.3
v -0.2 0.7 0.2
v -0.2 0.7 -0.2
v -0.2 0.7 -0.3
v -0.1 0 -0.4
v -0.1 0 -0.5
v -0.1 0.2 -0.4
v -0.1 0.2 -0.5
v -0.1 0.4 0.4
v -0.1 0.4 0.3
v -0.1 0.5 -0.3
v -0.1 0.5 -0.4
v -0.1 0.7 0.4
v -0.1 0.7 0.3
v -0.1 0.7 -0.3
v -0.1 0.7 -0.4
v -0.2 0 -0.4
v -0.2 0 -0.5
v -0.2 0.1 -0.4
v -0.2 0.1 -0.5
v -5.96046e-008 0.5 -0.3
v -5.96046e-008 0.5 -0.4
v -5.96046e-008 0.7 -0.3
v -5.96046e-008 0.7 -0.4
v 0.1 0.4 0.4
v 0.1 0.4 0.3
v 0.1 0.7 0.4
v 0.1 0.7 0.3
v 0.2 0 0.5
v 0.2 0 0.4
v 0.2 0 -0.4
v 0.2 0 -0.5
v 0.2 0.2 -0.4
v 0.2 0.2 -0.5
v 0.2 0.3 0.5
v 0.2 0.3 0.4
v 0.2 0.5 0.3
v 0.2 0.5 0.2
v 0.2 0.5 -0.2
v 0.2 0.5 -0.3
v 0.2 0.7 0.3
v 0.2 0.7 0.2
v 0.2 0.7 -0.2
v 0.2 0.7 -0.3
v 0.3 0 0.4
v 0.3 0 0.3
v 0.3 0.2 -0.3
v 0.3 0.2 -0.4
v 0.3 0.4 0.4
v 0.3 0.4 0.3
v 0.3 0.5 0.2
v 0.3 0.5 0.1
v 0.3 0.5 1.19209e-007
v 0.3 0.5 -0.3
v 0.3 0.5 -0.4
v 0.3 0.7 0.2
v 0.3 0.7 0.1
v 0.3 0.7 1.19209e-007
v 0.4 0.2 0.3
v 0.4 0.2 -0.0999998
v 0.4 0.2 -0.2
v 0.4 0.2 -0.3
v 0.4 0.4 0.3
v 0.4 0.4 0.1
v 0.4 0.5 0.3
v 0.4 0.5 0.1
v 0.4 0.5 1.19209e-007
v 0.4 0.5 -0.0999998
v 0.4 0.5 -0.2
v 0.4 0.5 -0.3
v 0.4 0.7 1.19209e-007
v 0.4 0.7 -0.2
v 0.5 0 0.3
v 0.5 0 1.19209e-007
v 0.5 0 -0.3
v 0.5 0 -0.4
v 0.5 0.1 1.19209e-007
v 0.5 0.1 -0.3
v 0.5 0.2 0.3
v 0.5 0.2 -0.4
v 0.6 0 1.19209e-007
v 0.6 0 -0.3
v 0.6 0.1 1.19209e-007
v 0.6 0.1 -0.3
v -0.2 0 0.5
v -0.2 0.3 0.5
v 0.2 0 0.5
v 0.2 0.3 0.5
v -0.6 0 0.4
v -0.6 0.1 0.4
v -0.3 0.1 0.4
v -0.3 0.4 0.4
v -0.2 0 0.4
v -0.2 0.3 0.4
v -0.2 0.4 0.4
v -0.1 0.3 0.4
v -0.1 0.4 0.4
v -0.1 0.7 0.4
v 0.1 0.4 0.4
v 0.1 0.7 0.4
v 0.2 0 0.4
v 0.2 0.3 0.4
v 0.3 0 0.4
v 0.3 0.4 0.4
v -0.5 0.1 0.3
v -0.5 0.2 0.3
v -0.4 0.2 0.3
v -0.4 0.5 0.3
v -0.3 0.1 0.3
v -0.3 0.4 0.3
v -0.2 0.4 0.3
v -0.2 0.5 0.3
v -0.2 0.7 0.3
v -0.1 0.4 0.3
v -0.1 0.7 0.3
v 0.1 0.4 0.3
v 0.1 0.7 0.3
v 0.2 0.5 0.3
v 0.2 0.7 0.3
v 0.3 0 0.3
v 0.3 0.4 0.3
v 0.4 0.2 0.3
v 0.4 0.4 0.3
v 0.4 0.5 0.3
v 0.5 0 0.3
v 0.5 0.2 0.3
v -0.4 0.5 0.2
v -0.4 0.7 0.2
v -0.2 0.5 0.2
v -0.2 0.7 0.2
v 0.2 0.5 0.2
v 0.2 0.7 0.2
v 0.3 0.5 0.2
v 0.3 0.7 0.2
v -0.5 0.2 0.1
v -0.5 0.3 0.1
v -0.4 0.2 0.1
v -0.4 0.3 0.1
v 0.3 0.5 1.19209e-007
v 0.3 0.7 1.19209e-007
v 0.4 0.5 1.19209e-007
v 0.4 0.7 1.19209e-007
v 0.5 0 1.19209e-007
v 0.5 0.1 1.19209e-007
v 0.6 0 1.19209e-007
v 0.6 0.1 1.19209e-007
v -0.5 0 -0.2
v -0.5 0.1 -0.2
v -0.4 0 -0.2
v -0.4 0.1 -0.2
v -0.6 0 1.19209e-007
v -0.6 0.1 1.19209e-007
v -0.5 0 1.19209e-007
v -0.5 0.1 1.19209e-007
v -0.5 0 -0.0999998
v -0.5 0.3 -0.0999998
v -0.4 0 -0.0999998
v -0.4 0.3 -0.0999998
v -0.4 0.5 -0.0999998
v -0.4 0.7 -0.0999998
v -0.3 0.5 -0.0999998
v -0.3 0.7 -0.0999998
v -0.3 0.5 -0.2
v -0.3 0.7 -0.2
v -0.2 0.5 -0.2
v -0.2 0.7 -0.2
v 0.2 0.5 -0.2
v 0.2 0.7 -0.2
v 0.3 0.5 -0.2
v 0.3 0.7 -0.2
v 0.4 0.5 -0.2
v 0.4 0.7 -0.2
v -0.4 0.2 -0.3
v -0.4 0.5 -0.3
v -0.3 0.2 -0.3
v -0.3 0.3 -0.3
v -0.3 0.5 -0.3
v -0.2 0.5 -0.3
v -0.2 0.7 -0.3
v -0.1 0.5 -0.3
v -0.1 0.7 -0.3
v -5.96046e-008 0.5 -0.3
v -5.96046e-008 0.7 -0.3
v 0.2 0.5 -0.3
v 0.2 0.7 -0.3
v 0.3 0.2 -0.3
v 0.3 0.5 -0.3
v 0.4 0.2 -0.3
v 0.4 0.5 -0.3
v 0.5 0 -0.3
v 0.5 0.1 -0.3
v 0.6 0 -0.3
v 0.6 0.1 -0.3
v -0.4 0.1 -0.4
v -0.4 0.2 -0.4
v -0.3 0.2 -0.4
v -0.3 0.3 -0.4
v -0.3 0.5 -0.4
v -0.2 0 -0.4
v -0.2 0.1 -0.4
v -0.1 0 -0.4
v -0.1 0.2 -0.4
v -0.1 0.3 -0.4
v -0.1 0.5 -0.4
v -0.1 0.7 -0.4
v -5.96046e-008 0.3 -0.4
v -5.96046e-008 0.5 -0.4
v -5.96046e-008 0.7 -0.4
v 0.2 0 -0.4
v 0.2 0.2 -0.4
v 0.2 0.3 -0.4
v 0.2 0.5 -0.4
v 0.3 0.2 -0.4
v 0.3 0.5 -0.4
v 0.5 0 -0.4
v 0.5 0.2 -0.4
v -0.5 0 -0.5
v -0.5 0.1 -0.5
v -0.2 0 -0.5
v -0.2 0.1 -0.5
v -0.1 0 -0.5
v -0.1 0.2 -0.5
v 0.2 0 -0.5
v 0.2 0.2 -0.5
v -0.2 0 0.5
v 0.2 0 0.5
v -0.6 0 0.4
v -0.2 0 0.4
v 0.2 0 0.4
v 0.3 0 0.4
v 0.3 0 0.3
v 0.5 0 0.3
v -0.6 0 1.19209e-007
v -0.5 0 1.19209e-007
v 0.5 0 1.19209e-007
v 0.6 0 1.19209e-007
v -0.5 0 -0.0999998
v -0.4 0 -0.0999998
v -0.5 0 -0.2
v -0.4 0 -0.2
v 0.5 0 -0.3
v 0.6 0 -0.3
v -0.2 0 -0.4
v -0.1 0 -0.4
v 0.2 0 -0.4
v 0.5 0 -0.4
v -0.5 0 -0.5
v -0.2 0 -0.5
v -0.1 0 -0.5
v 0.2 0 -0.5
v -0.6 0.1 0.4
v -0.3 0.1 0.4
v -0.5 0.1 0.3
v -0.3 0.1 0.3
v -0.6 0.1 1.19209e-007
v -0.5 0.1 1.19209e-007
v 0.5 0.1 1.19209e-007
v 0.6 0.1 1.19209e-007
v -0.5 0.1 -0.2
v -0.4 0.1 -0.2
v 0.5 0.1 -0.3
v 0.6 0.1 -0.3
v -0.4 0.1 -0.4
v -0.2 0.1 -0.4
v -0.5 0.1 -0.5
v -0.2 0.1 -0.5
v -0.5 0.2 0.3
v -0.4 0.2 0.3
v 0.4 0.2 0.3
v 0.5 0.2 0.3
v -0.5 0.2 0.1
v -0.4 0.2 0.1
v 0.4 0.2 -0.0999998
v 0.4 0.2 -0.2
v -0.4 0.2 -0.3
v -0.3 0.2 -0.3
v 0.3 0.2 -0.3
v 0.4 0.2 -0.3
v -0.4 0.2 -0.4
v -0.3 0.2 -0.4
v -0.1 0.2 -0.4
v 0.2 0.2 -0.4
v 0.3 0.2 -0.4
v 0.5 0.2 -0.4
v -0.1 0.2 -0.5
v 0.2 0.2 -0.5
v -0.2 0.3 0.5
v 0.2 0.3 0.5
v -0.2 0.3 0.4
v -0.1 0.3 0.4
v 0.2 0.3 0.4
v -0.5 0.3 0.1
v -0.4 0.3 0.1
v -0.5 0.3 -0.0999998
v -0.4 0.3 -0.0999998
v -0.3 0.4 0.4
v -0.2 0.4 0.4
v -0.1 0.4 0.4
v 0.1 0.4 0.4
v 0.3 0.4 0.4
v -0.3 0.4 0.3
v -0.2 0.4 0.3
v -0.1 0.4 0.3
v 0.1 0.4 0.3
v 0.3 0.4 0.3
v -0.4 0.5 0.3
v -0.2 0.5 0.3
v 0.2 0.5 0.3
v 0.4 0.5 0.3
v -0.4 0.5 0.2
v -0.2 0.5 0.2
v 0.2 0.5 0.2
v 0.3 0.5 0.2
v 0.3 0.5 0.1
v 0.4 0.5 0.1
v 0.3 0.5 1.19209e-007
v 0.4 0.5 1.19209e-007
v -0.4 0.5 -0.0999998
v -0.3 0.5 -0.0999998
v -0.4 0.5 -0.2
v -0.3 0.5 -0.2
v -0.2 0.5 -0.2
v 0.2 0.5 -0.2
v 0.3 0.5 -0.2
v 0.4 0.5 -0.2
v -0.4 0.5 -0.3
v -0.3 0.5 -0.3
v -0.2 0.5 -0.3
v -0.1 0.5 -0.3
v -5.96046e-008 0.5 -0.3
v 0.2 0.5 -0.3
v 0.3 0.5 -0.3
v 0.4 0.5 -0.3
v -0.3 0.5 -0.4
v -0.1 0.5 -0.4
v -5.96046e-008 0.5 -0.4
v 0.2 0.5 -0.4
v 0.3 0.5 -0.4
v -0.1 0.7 0.4
v 0.1 0.7 0.4
v -0.2 0.7 0.3
v -0.1 0.7 0.3
v -5.96046e-008 0.7 0.3
v 0.1 0.7 0.3
v 0.2 0.7 0.3
v -0.4 0.7 0.2
v -0.2 0.7 0.2
v -0.1 0.7 0.2
v 0.2 0.7 0.2
v 0.3 0.7 0.2
v -5.96046e-008 0.7 0.1
v 0.3 0.7 0.1
v 0.3 0.7 1.19209e-007
v 0.4 0.7 1.19209e-007
v -0.4 0.7 -0.0999998
v -0.3 0.7 -0.0999998
v -0.2 0.7 -0.0999998
v -0.3 0.7 -0.2
v -0.2 0.7 -0.2
v -0.1 0.7 -0.2
v -5.96046e-008 0.7 -0.2
v 0.2 0.7 -0.2
v 0.3 0.7 -0.2
v 0.4 0.7 -0.2
v -0.2 0.7 -0.3
v -0.1 0.7 -0.3
v -5.96046e-008 0.7 -0.3
v 0.2 0.7 -0.3
v -0.1 0.7 -0.4
v -5.96046e-008 0.7 -0.4

# faces
f 3/3/1 2/3/1 1/3/1
f 4/3/1 2/3/1 3/3/1
f 10/3/1 6/3/1 5/3/1
f 11/3/1 8/3/1 7/3/1
f 12/3/1 8/3/1 11/3/1
f 13/3/1 10/3/1 9/3/1
f 14/3/1 10/3/1 13/3/1
f 15/3/1 10/3/1 14/3/1
f 16/3/1 6/3/1 10/3/1
f 16/3/1 10/3/1 15/3/1
f 19/3/1 18/3/1 17/3/1
f 23/3/1 20/3/1 19/3/1
f 24/3/1 20/3/1 23/3/1
f 25/3/1 22/3/1 21/3/1
f 26/3/1 19/3/1 17/3/1
f 26/3/1 23/3/1 19/3/1
f 27/3/1 23/3/1 26/3/1
f 27/3/1 26/3/1 25/3/1
f 28/3/1 23/3/1 27/3/1
f 29/3/1 25/3/1 21/3/1
f 29/3/1 27/3/1 25/3/1
f 30/3/1 27/3/1 29/3/1
f 31/1/1 28/1/1 27/1/1
f 31/3/1 27/3/1 30/3/1
f 32/3/1 23/3/1 28/3/1
f 32/1/1 28/1/1 31/1/1
f 33/3/1 23/3/1 32/3/1
f 34/3/1 31/3/1 30/3/1
f 35/3/1 31/3/1 34/3/1
f 40/3/1 39/3/1 38/3/1
f 41/3/1 39/3/1 40/3/1
f 42/3/1 37/3/1 36/3/1
f 43/3/1 37/3/1 42/3/1
f 46/2/1 41/2/1 40/2/1
f 47/2/1 41/2/1 46/2/1
f 48/1/1 45/1/1 44/1/1
f 49/1/1 45/1/1 48/1/1
f 52/3/1 51/3/1 50/3/1
f 53/3/1 51/3/1 52/3/1
f 58/2/1 55/2/1 54/2/1
f 59/2/1 55/2/1 58/2/1
f 60/2/1 57/2/1 56/2/1
f 61/2/1 57/2/1 60/2/1
f 64/3/1 63/3/1 62/3/1
f 65/3/1 63/3/1 64/3/1
f 70/3/1 67/3/1 66/3/1
f 71/3/1 67/3/1 70/3/1
f 72/3/1 69/3/1 68/3/1
f 73/3/1 69/3/1 72/3/1
f 74/3/2 75/3/2 76/3/2
f 76/3/2 75/3/2 77/3/2
f 78/3/2 79/3/2 80/3/2
f 80/3/2 79/3/2 81/3/2
f 82/3/2 83/3/2 84/3/2
f 84/3/2 83/3/2 85/3/2
f 88/3/2 89/3/2 90/3/2
f 90/3/2 89/3/2 91/3/2
f 86/3/2 87/3/2 92/3/2
f 92/3/2 87/3/2 93/3/2
f 94/2/2 95/2/2 98/2/2
f 98/2/2 95/2/2 99/2/2
f 96/2/2 97/2/2 100/2/2
f 100/2/2 97/2/2 101/2/2
f 102/3/2 103/3/2 106/3/2
f 106/3/2 103/3/2 107/3/2
f 104/3/2 105/3/2 111/3/2
f 111/3/2 105/3/2 112/3/2
f 108/2/2 109/2/2 113/2/2
f 109/3/2 110/3/2 114/3/2
f 113/2/2 109/2/2 114/2/2
f 114/3/2 110/3/2 115/3/2
f 116/3/2 117/3/2 120/3/2
f 120/3/2 117/3/2 121/3/2
f 120/2/2 121/2/2 122/2/2
f 121/3/2 117/3/2 123/3/2
f 122/2/2 121/2/2 123/2/2
f 123/3/2 117/3/2 124/3/2
f 117/2/2 118/2/2 125/2/2
f 124/3/2 117/3/2 125/3/2
f 118/3/2 119/3/2 126/3/2
f 125/2/2 118/2/2 126/2/2
f 126/3/2 119/3/2 127/3/2
f 124/2/2 125/2/2 128/2/2
f 125/2/2 126/2/2 128/2/2
f 128/2/2 126/2/2 129/2/2
f 130/3/2 131/3/2 134/3/2
f 132/3/2 133/3/2 135/3/2
f 130/3/2 134/3/2 136/3/2
f 134/3/2 135/3/2 136/3/2
f 135/3/2 133/3/2 137/3/2
f 136/3/2 135/3/2 137/3/2
f 138/3/2 139/3/2 140/3/2
f 140/3/2 139/3/2 141/3/2
f 144/3/3 143/3/3 142/3/3
f 145/3/3 143/3/3 144/3/3
f 148/3/3 147/3/3 146/3/3
f 150/3/3 148/3/3 146/3/3
f 150/3/3 149/3/3 148/3/3
f 151/3/3 149/3/3 150/3/3
f 152/3/3 149/3/3 151/3/3
f 153/2/3 152/2/3 151/2/3
f 154/2/3 152/2/3 153/2/3
f 156/3/3 154/3/3 153/3/3
f 156/3/3 155/3/3 154/3/3
f 157/3/3 155/3/3 156/3/3
f 159/3/3 156/3/3 153/3/3
f 160/3/3 159/3/3 158/3/3
f 161/3/3 156/3/3 159/3/3
f 161/3/3 159/3/3 160/3/3
f 164/3/3 163/3/3 162/3/3
f 166/3/3 164/3/3 162/3/3
f 166/3/3 165/3/3 164/3/3
f 167/3/3 165/3/3 166/3/3
f 168/3/3 165/3/3 167/3/3
f 169/3/3 165/3/3 168/3/3
f 171/2/3 169/2/3 168/2/3
f 171/2/3 170/2/3 169/2/3
f 172/2/3 170/2/3 171/2/3
f 175/2/3 174/2/3 173/2/3
f 176/2/3 174/2/3 175/2/3
f 178/2/3 175/2/3 173/2/3
f 179/3/3 178/3/3 177/3/3
f 180/2/3 175/2/3 178/2/3
f 180/3/3 178/3/3 179/3/3
f 181/2/3 175/2/3 180/2/3
f 182/3/3 179/3/3 177/3/3
f 183/3/3 179/3/3 182/3/3
f 186/3/3 185/3/3 184/3/3
f 187/3/3 185/3/3 186/3/3
f 190/2/3 189/2/3 188/2/3
f 191/2/3 189/2/3 190/2/3
f 194/3/3 193/3/3 192/3/3
f 195/3/3 193/3/3 194/3/3
f 198/2/3 197/2/3 196/2/3
f 199/2/3 197/2/3 198/2/3
f 202/3/3 201/3/3 200/3/3
f 203/3/3 201/3/3 202/3/3
f 206/3/3 205/3/3 204/3/3
f 207/3/3 205/3/3 206/3/3
f 208/3/4 209/3/4 210/3/4
f 210/3/4 209/3/4 211/3/4
f 212/3/4 213/3/4 214/3/4
f 214/3/4 213/3/4 215/3/4
f 216/3/4 217/3/4 218/3/4
f 218/3/4 217/3/4 219/3/4
f 220/1/4 221/1/4 222/1/4
f 222/1/4 221/1/4 223/1/4
f 224/3/4 225/3/4 226/3/4
f 226/3/4 225/3/4 227/3/4
f 226/2/4 227/2/4 228/2/4
f 228/2/4 227/2/4 229/2/4
f 230/3/4 231/3/4 232/3/4
f 232/3/4 231/3/4 233/3/4
f 233/3/4 231/3/4 234/3/4
f 235/2/4 236/2/4 237/2/4
f 237/2/4 236/2/4 238/2/4
f 239/2/4 240/2/4 241/2/4
f 241/2/4 240/2/4 242/2/4
f 243/3/4 244/3/4 245/3/4
f 245/3/4 244/3/4 246/3/4
f 247/3/4 248/3/4 249/3/4
f 249/3/4 248/3/4 250/3/4
f 251/3/4 252/3/4 253/3/4
f 251/3/4 253/3/4 257/3/4
f 253/3/4 254/3/4 257/3/4
f 256/3/4 257/3/4 258/3/4
f 257/3/4 254/3/4 259/3/4
f 258/3/4 257/3/4 259/3/4
f 254/2/4 255/2/4 260/2/4
f 259/3/4 254/3/4 260/3/4
f 260/2/4 255/2/4 261/2/4
f 261/3/4 262/3/4 263/3/4
f 260/3/4 261/3/4 263/3/4
f 259/3/4 260/3/4 263/3/4
f 263/3/4 262/3/4 264/3/4
f 264/3/4 262/3/4 265/3/4
f 259/3/4 263/3/4 267/3/4
f 263/2/4 264/2/4 268/2/4
f 267/3/4 263/3/4 268/3/4
f 268/2/4 264/2/4 269/2/4
f 266/3/4 267/3/4 270/3/4
f 267/3/4 268/3/4 270/3/4
f 268/3/4 269/3/4 270/3/4
f 270/3/4 269/3/4 271/3/4
f 266/3/4 270/3/4 272/3/4
f 272/3/4 270/3/4 273/3/4
f 274/3/4 275/3/4 276/3/4
f 276/3/4 275/3/4 277/3/4
f 278/3/4 279/3/4 280/3/4
f 280/3/4 279/3/4 281/3/4
f 285/3/5 283/3/5 282/3/5
f 286/3/5 283/3/5 285/3/5
f 288/3/5 285/3/5 284/3/5
f 288/3/5 287/3/5 286/3/5
f 288/3/5 286/3/5 285/3/5
f 290/3/5 288/3/5 284/3/5
f 290/3/5 289/3/5 288/3/5
f 291/3/5 289/3/5 290/3/5
f 292/3/5 289/3/5 291/3/5
f 294/3/5 293/3/5 292/3/5
f 294/3/5 292/3/5 291/3/5
f 295/3/5 293/3/5 294/3/5
f 297/3/5 293/3/5 295/3/5
f 298/3/5 293/3/5 297/3/5
f 298/3/5 297/3/5 296/3/5
f 299/3/5 293/3/5 298/3/5
f 300/3/5 298/3/5 296/3/5
f 301/3/5 298/3/5 300/3/5
f 302/3/5 298/3/5 301/3/5
f 303/3/5 298/3/5 302/3/5
f 304/3/5 300/3/5 296/3/5
f 305/3/5 300/3/5 304/3/5
f 306/3/5 302/3/5 301/3/5
f 307/3/5 302/3/5 306/3/5
f 308/3/6 309/3/6 310/3/6
f 310/3/6 309/3/6 311/3/6
f 308/3/6 310/3/6 312/3/6
f 312/3/6 310/3/6 313/3/6
f 314/3/6 315/3/6 318/3/6
f 318/3/6 315/3/6 319/3/6
f 316/3/6 317/3/6 320/3/6
f 316/3/6 320/3/6 322/3/6
f 320/3/6 321/3/6 322/3/6
f 322/3/6 321/3/6 323/3/6
f 324/3/6 325/3/6 328/3/6
f 328/3/6 325/3/6 329/3/6
f 326/3/6 327/3/6 330/3/6
f 330/3/6 327/3/6 331/3/6
f 331/3/6 327/3/6 335/3/6
f 332/3/6 333/3/6 336/3/6
f 336/3/6 333/3/6 337/3/6
f 334/3/6 335/3/6 340/3/6
f 335/3/6 327/3/6 341/3/6
f 340/3/6 335/3/6 341/3/6
f 338/3/6 339/3/6 342/3/6
f 342/3/6 339/3/6 343/3/6
f 344/3/6 345/3/6 346/3/6
f 346/3/6 345/3/6 347/3/6
f 347/3/6 345/3/6 348/3/6
f 349/3/6 350/3/6 351/3/6
f 351/3/6 350/3/6 352/3/6
f 353/3/6 354/3/6 358/3/6
f 354/2/6 355/2/6 359/2/6
f 358/3/6 354/3/6 359/3/6
f 359/2/6 355/2/6 360/2/6
f 356/3/6 357/3/6 361/3/6
f 361/3/6 357/3/6 362/3/6
f 363/3/6 364/3/6 367/3/6
f 367/3/6 364/3/6 368/3/6
f 365/2/6 366/2/6 369/2/6
f 369/2/6 366/2/6 370/2/6
f 370/2/6 366/2/6 371/2/6
f 371/2/6 366/2/6 372/2/6
f 371/3/6 372/3/6 373/3/6
f 373/3/6 372/3/6 374/3/6
f 375/1/6 376/1/6 377/1/6
f 377/1/6 376/1/6 378/1/6
f 377/3/6 378/3/6 383/3/6
f 378/2/6 379/2/6 384/2/6
f 383/3/6 378/3/6 384/3/6
f 384/2/6 379/2/6 385/2/6
f 381/3/6 382/3/6 388/3/6
f 380/3/6 381/3/6 388/3/6
f 388/3/6 382/3/6 389/3/6
f 389/3/6 382/3/6 390/3/6
f 385/2/6 386/2/6 391/2/6
f 384/2/6 385/2/6 391/2/6
f 391/2/6 386/2/6 392/2/6
f 387/2/6 388/2/6 393/2/6
f 388/3/6 389/3/6 394/3/6
f 393/2/6 388/2/6 394/2/6
f 394/3/6 389/3/6 395/3/6
f 396/3/6 397/3/6 399/3/6
f 399/3/6 397/3/6 400/3/6
f 400/3/6 397/3/6 401/3/6
f 398/2/6 399/2/6 404/2/6
f 399/3/6 400/3/6 405/3/6
f 404/2/6 399/2/6 405/2/6
f 401/2/6 402/2/6 406/2/6
f 400/2/6 401/2/6 406/2/6
f 405/3/6 400/3/6 408/3/6
f 406/2/6 407/2/6 408/2/6
f 400/2/6 406/2/6 408/2/6
f 403/3/6 404/3/6 408/3/6
f 404/3/6 405/3/6 408/3/6
f 408/2/6 407/2/6 409/2/6
f 408/3/6 409/3/6 410/3/6
f 403/3/6 408/3/6 412/3/6
f 408/3/6 410/3/6 412/3/6
f 412/3/6 410/3/6 413/3/6
f 413/3/6 410/3/6 414/3/6
f 413/1/6 414/1/6 415/1/6
f 414/3/6 410/3/6 416/3/6
f 415/1/6 414/1/6 416/1/6
f 416/3/6 410/3/6 417/3/6
f 417/3/6 410/3/6 418/3/6
f 418/3/6 410/3/6 419/3/6
f 410/2/6 411/2/6 420/2/6
f 419/3/6 410/3/6 420/3/6
f 420/2/6 411/2/6 421/2/6
f 416/2/6 417/2/6 422/2/6
f 417/3/6 418/3/6 423/3/6
f 422/2/6 417/2/6 423/2/6
f 418/2/6 419/2/6 424/2/6
f 423/3/6 418/3/6 424/3/6
f 424/2/6 419/2/6 425/2/6
f 423/3/6 424/3/6 426/3/6
f 426/3/6 424/3/6 427/3/6
