# Blender v2.82 (sub 7) OBJ File: ''
# www.blender.org
mtllib orange.mtl
g orange
v -0.300000 0.400000 0.100000
v -0.300000 0.100000 -0.200000
v -0.300000 0.100000 0.100000
v -0.300000 0.400000 -0.200000
v -0.200000 0.100000 0.100000
v -0.200000 0.000000 -0.200000
v -0.200000 -0.000000 0.100000
v -0.200000 0.100000 -0.200000
v -0.200000 0.400000 0.200000
v -0.200000 0.100000 0.200000
v -0.200000 0.400000 0.100000
v -0.200000 0.400000 -0.200000
v -0.200000 0.100000 -0.300000
v -0.200000 0.400000 -0.300000
v -0.200000 0.500000 0.100000
v -0.200000 0.500000 -0.200000
v -0.100000 0.600000 -0.100000
v -0.100000 0.500000 -0.100000
v -0.100000 0.500000 0.000000
v -0.100000 0.700000 0.000000
v -0.100000 0.700000 -0.100000
v -0.100000 0.600000 -0.200000
v -0.100000 0.700000 -0.200000
v 0.000000 0.500000 0.000000
v 0.000000 0.500000 -0.100000
v 0.000000 0.600000 -0.100000
v 0.000000 0.700000 0.000000
v 0.000000 0.600000 -0.200000
v 0.000000 0.700000 -0.100000
v 0.000000 0.700000 -0.200000
v 0.100000 -0.000000 0.100000
v 0.100000 0.000000 -0.200000
v 0.100000 0.100000 0.100000
v 0.100000 0.100000 -0.200000
v 0.100000 0.100000 0.200000
v 0.100000 0.400000 0.200000
v 0.100000 0.400000 0.100000
v 0.100000 0.100000 -0.300000
v 0.100000 0.400000 -0.200000
v 0.100000 0.400000 -0.300000
v 0.100000 0.500000 0.100000
v 0.100000 0.500000 -0.200000
v 0.200000 0.100000 0.100000
v 0.200000 0.100000 -0.200000
v 0.200000 0.400000 0.100000
v 0.200000 0.400000 -0.200000
v 0.100000 0.100000 0.200000
v -0.200000 0.400000 0.200000
v -0.200000 0.100000 0.200000
v 0.100000 0.400000 0.200000
v -0.200000 0.100000 0.100000
v -0.300000 0.400000 0.100000
v -0.300000 0.100000 0.100000
v -0.200000 0.400000 0.100000
v 0.100000 -0.000000 0.100000
v -0.200000 -0.000000 0.100000
v 0.100000 0.100000 0.100000
v 0.100000 0.400000 0.100000
v -0.200000 0.500000 0.100000
v 0.100000 0.500000 0.100000
v 0.200000 0.100000 0.100000
v 0.200000 0.400000 0.100000
v 0.000000 0.500000 0.000000
v -0.100000 0.700000 0.000000
v -0.100000 0.500000 0.000000
v 0.000000 0.700000 0.000000
v -0.100000 0.500000 -0.100000
v -0.100000 0.600000 -0.100000
v 0.000000 0.500000 -0.100000
v 0.000000 0.600000 -0.100000
v -0.300000 0.100000 -0.200000
v -0.300000 0.400000 -0.200000
v -0.200000 0.100000 -0.200000
v -0.200000 0.400000 -0.200000
v -0.100000 0.600000 -0.200000
v -0.100000 0.700000 -0.200000
v 0.000000 0.600000 -0.200000
v 0.000000 0.700000 -0.200000
v -0.200000 0.000000 -0.200000
v 0.100000 0.000000 -0.200000
v 0.100000 0.100000 -0.200000
v -0.200000 0.500000 -0.200000
v 0.100000 0.400000 -0.200000
v 0.100000 0.500000 -0.200000
v 0.200000 0.100000 -0.200000
v 0.200000 0.400000 -0.200000
v -0.200000 0.100000 -0.300000
v -0.200000 0.400000 -0.300000
v 0.100000 0.100000 -0.300000
v 0.100000 0.400000 -0.300000
v -0.200000 0.000000 -0.200000
v 0.100000 -0.000000 0.100000
v -0.200000 -0.000000 0.100000
v 0.100000 0.000000 -0.200000
v -0.200000 0.100000 0.100000
v 0.100000 0.100000 0.200000
v -0.200000 0.100000 0.200000
v 0.100000 0.100000 0.100000
v -0.300000 0.100000 -0.200000
v -0.300000 0.100000 0.100000
v -0.200000 0.100000 -0.200000
v 0.100000 0.100000 -0.200000
v 0.200000 0.100000 0.100000
v 0.200000 0.100000 -0.200000
v -0.200000 0.100000 -0.300000
v 0.100000 0.100000 -0.300000
v -0.100000 0.600000 -0.200000
v 0.000000 0.600000 -0.100000
v -0.100000 0.600000 -0.100000
v 0.000000 0.600000 -0.200000
v -0.200000 0.400000 0.200000
v 0.100000 0.400000 0.200000
v -0.200000 0.400000 0.100000
v 0.100000 0.400000 0.100000
v -0.300000 0.400000 0.100000
v -0.300000 0.400000 -0.200000
v -0.200000 0.400000 -0.200000
v 0.200000 0.400000 0.100000
v 0.100000 0.400000 -0.200000
v 0.200000 0.400000 -0.200000
v -0.200000 0.400000 -0.300000
v 0.100000 0.400000 -0.300000
v -0.200000 0.500000 0.100000
v 0.100000 0.500000 0.100000
v -0.100000 0.500000 0.000000
v 0.000000 0.500000 0.000000
v -0.100000 0.500000 -0.100000
v 0.000000 0.500000 -0.100000
v -0.200000 0.500000 -0.200000
v 0.100000 0.500000 -0.200000
v -0.100000 0.700000 0.000000
v 0.000000 0.700000 0.000000
v -0.100000 0.700000 -0.100000
v 0.000000 0.700000 -0.100000
v -0.100000 0.700000 -0.200000
v 0.000000 0.700000 -0.200000
vt 0.279297 0.500000
vt 0.279297 0.500000
vt 0.279297 0.500000
vt 0.279297 0.500000
vt 0.279297 0.500000
vt 0.279297 0.500000
vt 0.279297 0.500000
vt 0.279297 0.500000
vt 0.279297 0.500000
vt 0.279297 0.500000
vt 0.279297 0.500000
vt 0.279297 0.500000
vt 0.279297 0.500000
vt 0.279297 0.500000
vt 0.279297 0.500000
vt 0.279297 0.500000
vt 0.306641 0.500000
vt 0.306641 0.500000
vt 0.306641 0.500000
vt 0.306641 0.500000
vt 0.466797 0.500000
vt 0.466797 0.500000
vt 0.466797 0.500000
vt 0.306641 0.500000
vt 0.466797 0.500000
vt 0.306641 0.500000
vt 0.306641 0.500000
vt 0.306641 0.500000
vt 0.306641 0.500000
vt 0.466797 0.500000
vt 0.466797 0.500000
vt 0.466797 0.500000
vt 0.306641 0.500000
vt 0.466797 0.500000
vt 0.279297 0.500000
vt 0.279297 0.500000
vt 0.279297 0.500000
vt 0.279297 0.500000
vt 0.279297 0.500000
vt 0.279297 0.500000
vt 0.279297 0.500000
vt 0.279297 0.500000
vt 0.279297 0.500000
vt 0.279297 0.500000
vt 0.279297 0.500000
vt 0.279297 0.500000
vt 0.279297 0.500000
vt 0.279297 0.500000
vt 0.279297 0.500000
vt 0.279297 0.500000
vt 0.279297 0.500000
vt 0.279297 0.500000
vt 0.279297 0.500000
vt 0.279297 0.500000
vt 0.279297 0.500000
vt 0.279297 0.500000
vt 0.279297 0.500000
vt 0.279297 0.500000
vt 0.279297 0.500000
vt 0.279297 0.500000
vt 0.279297 0.500000
vt 0.279297 0.500000
vt 0.279297 0.500000
vt 0.279297 0.500000
vt 0.279297 0.500000
vt 0.279297 0.500000
vt 0.306641 0.500000
vt 0.306641 0.500000
vt 0.306641 0.500000
vt 0.306641 0.500000
vt 0.306641 0.500000
vt 0.306641 0.500000
vt 0.306641 0.500000
vt 0.306641 0.500000
vt 0.279297 0.500000
vt 0.279297 0.500000
vt 0.279297 0.500000
vt 0.279297 0.500000
vt 0.466797 0.500000
vt 0.466797 0.500000
vt 0.466797 0.500000
vt 0.466797 0.500000
vt 0.279297 0.500000
vt 0.279297 0.500000
vt 0.279297 0.500000
vt 0.279297 0.500000
vt 0.279297 0.500000
vt 0.279297 0.500000
vt 0.279297 0.500000
vt 0.279297 0.500000
vt 0.279297 0.500000
vt 0.279297 0.500000
vt 0.279297 0.500000
vt 0.279297 0.500000
vt 0.279297 0.500000
vt 0.279297 0.500000
vt 0.279297 0.500000
vt 0.279297 0.500000
vt 0.279297 0.500000
vt 0.279297 0.500000
vt 0.279297 0.500000
vt 0.279297 0.500000
vt 0.279297 0.500000
vt 0.279297 0.500000
vt 0.279297 0.500000
vt 0.279297 0.500000
vt 0.279297 0.500000
vt 0.279297 0.500000
vt 0.279297 0.500000
vt 0.279297 0.500000
vt 0.466797 0.500000
vt 0.466797 0.500000
vt 0.466797 0.500000
vt 0.466797 0.500000
vt 0.279297 0.500000
vt 0.279297 0.500000
vt 0.279297 0.500000
vt 0.279297 0.500000
vt 0.279297 0.500000
vt 0.279297 0.500000
vt 0.279297 0.500000
vt 0.279297 0.500000
vt 0.279297 0.500000
vt 0.279297 0.500000
vt 0.279297 0.500000
vt 0.279297 0.500000
vt 0.279297 0.500000
vt 0.279297 0.500000
vt 0.279297 0.500000
vt 0.279297 0.500000
vt 0.279297 0.500000
vt 0.279297 0.500000
vt 0.279297 0.500000
vt 0.279297 0.500000
vt 0.306641 0.500000
vt 0.306641 0.500000
vt 0.306641 0.500000
vt 0.306641 0.500000
vt 0.466797 0.500000
vt 0.466797 0.500000
vt 0.466797 0.500000
vt 0.466797 0.500000
vn -1.0000 -0.0000 0.0000
vn 1.0000 0.0000 0.0000
vn 0.0000 -0.0000 1.0000
vn 0.0000 0.0000 -1.0000
vn 0.0000 -1.0000 -0.0000
vn 0.0000 1.0000 0.0000
usemtl orange
s 1
f 1/1/1 2/2/1 3/3/1
f 4/4/1 2/2/1 1/1/1
f 5/5/1 6/6/1 7/7/1
f 8/8/1 6/6/1 5/5/1
f 9/9/1 5/5/1 10/10/1
f 11/11/1 5/5/1 9/9/1
f 12/12/1 13/13/1 8/8/1
f 14/14/1 13/13/1 12/12/1
f 15/15/1 12/12/1 11/11/1
f 16/16/1 12/12/1 15/15/1
f 17/17/1 18/18/1 19/19/1
f 20/20/1 17/17/1 19/19/1
f 21/21/1 22/22/1 17/23/1
f 21/24/1 17/17/1 20/20/1
f 23/25/1 22/22/1 21/21/1
f 24/26/2 25/27/2 26/28/2
f 24/26/2 26/28/2 27/29/2
f 26/30/2 28/31/2 29/32/2
f 27/29/2 26/28/2 29/33/2
f 29/32/2 28/31/2 30/34/2
f 31/35/2 32/36/2 33/37/2
f 33/37/2 32/36/2 34/38/2
f 35/39/2 33/37/2 36/40/2
f 36/40/2 33/37/2 37/41/2
f 34/38/2 38/42/2 39/43/2
f 39/43/2 38/42/2 40/44/2
f 37/41/2 39/43/2 41/45/2
f 41/45/2 39/43/2 42/46/2
f 43/47/2 44/48/2 45/49/2
f 45/49/2 44/48/2 46/50/2
f 47/51/3 48/52/3 49/53/3
f 50/54/3 48/52/3 47/51/3
f 51/55/3 52/56/3 53/57/3
f 54/58/3 52/56/3 51/55/3
f 55/59/3 51/55/3 56/60/3
f 57/61/3 51/55/3 55/59/3
f 58/62/3 59/63/3 54/58/3
f 60/64/3 59/63/3 58/62/3
f 61/65/3 58/62/3 57/61/3
f 62/66/3 58/62/3 61/65/3
f 63/67/3 64/68/3 65/69/3
f 66/70/3 64/68/3 63/67/3
f 67/71/4 68/72/4 69/73/4
f 69/73/4 68/72/4 70/74/4
f 71/75/4 72/76/4 73/77/4
f 73/77/4 72/76/4 74/78/4
f 75/79/4 76/80/4 77/81/4
f 77/81/4 76/80/4 78/82/4
f 79/83/4 73/77/4 80/84/4
f 80/84/4 73/77/4 81/85/4
f 74/78/4 82/86/4 83/87/4
f 83/87/4 82/86/4 84/88/4
f 81/85/4 83/87/4 85/89/4
f 85/89/4 83/87/4 86/90/4
f 87/91/4 88/92/4 89/93/4
f 89/93/4 88/92/4 90/94/4
f 91/95/5 92/96/5 93/97/5
f 94/98/5 92/96/5 91/95/5
f 95/99/5 96/100/5 97/101/5
f 98/102/5 96/100/5 95/99/5
f 99/103/5 95/99/5 100/104/5
f 101/105/5 95/99/5 99/103/5
f 102/106/5 103/107/5 98/102/5
f 104/108/5 103/107/5 102/106/5
f 105/109/5 102/106/5 101/105/5
f 106/110/5 102/106/5 105/109/5
f 107/111/5 108/112/5 109/113/5
f 110/114/5 108/112/5 107/111/5
f 111/115/6 112/116/6 113/117/6
f 113/117/6 112/116/6 114/118/6
f 115/119/6 113/117/6 116/120/6
f 116/120/6 113/117/6 117/121/6
f 114/118/6 118/122/6 119/123/6
f 119/123/6 118/122/6 120/124/6
f 117/121/6 119/123/6 121/125/6
f 121/125/6 119/123/6 122/126/6
f 123/127/6 124/128/6 125/129/6
f 125/129/6 124/128/6 126/130/6
f 123/127/6 125/129/6 127/131/6
f 126/130/6 124/128/6 128/132/6
f 123/127/6 127/131/6 129/133/6
f 127/131/6 128/132/6 129/133/6
f 128/132/6 124/128/6 130/134/6
f 129/133/6 128/132/6 130/134/6
f 131/135/6 132/136/6 133/137/6
f 133/137/6 132/136/6 134/138/6
f 133/139/6 134/140/6 135/141/6
f 135/141/6 134/140/6 136/142/6
